<?xml version="1.0" encoding="utf-8"?>
<!-- Generator: Adobe Illustrator 22.0.1, SVG Export Plug-In . SVG Version: 6.00 Build 0)  -->
<svg version="1.1" id="Слой_1" xmlns="http://www.w3.org/2000/svg" xmlns:xlink="http://www.w3.org/1999/xlink" x="0px" y="0px"
	 viewBox="0 0 73.2 25.3" style="enable-background:new 0 0 73.2 25.3;" xml:space="preserve">
<style type="text/css">
	.st0{fill:#6B247E;}
</style>
<polygon class="st0" points="6,24.4 6,9.5 1.8,12.3 0,9.4 7,4.6 10.1,4.6 10.1,24.4 "/>
<path class="st0" d="M25.1,20.2c-1.6,0.6-3.3,0.4-4.7-0.3c0.8-1.4,2.4-2.3,3.3-2.1c0.7,0.2,1.2,0.6,1.9-0.3c0.7-0.9,1.8-0.6,2.6-0.6
	c0.1,0,0.1,0,0.2,0C27.8,18.3,26.7,19.6,25.1,20.2 M29,12.3l-0.2,0c0,0-2.7,0.4-5.8,1.5c-3.6,1.3-5.7,2.7-5.8,2.8L17,16.7l0.1,0.2
	c1.2,3.3,4.9,5,8.2,3.7c3.3-1.2,5-4.9,3.8-8.2L29,12.3z"/>
<path class="st0" d="M26.2,11.3c0.6-0.2,0.9-0.8,0.6-1.4C26.7,9.3,26,9,25.5,9.2c-0.6,0.2-0.8,0.8-0.6,1.4
	C25,11.2,25.7,11.5,26.2,11.3"/>
<path class="st0" d="M18.5,14.1c0.6-0.2,0.8-0.8,0.6-1.4c-0.2-0.6-0.8-0.9-1.4-0.6c-0.6,0.2-0.9,0.8-0.6,1.4
	C17.4,14.1,18,14.3,18.5,14.1"/>
<path class="st0" d="M40.3,20.3c-1.6-0.6-2.7-1.8-3.3-3.3c0.1,0,0.1,0,0.2,0c0.9,0,2-0.3,2.7,0.6c0.7,0.9,1.2,0.4,1.9,0.3
	c1-0.2,2.5,0.7,3.3,2.1C43.6,20.7,41.9,20.9,40.3,20.3 M42.5,13.9c-3.1-1.2-5.8-1.5-5.8-1.5l-0.2,0l-0.1,0.2c-1.2,3.3,0.5,7,3.8,8.2
	c3.3,1.2,7-0.5,8.2-3.8l0.1-0.2l-0.2-0.1C48.2,16.7,46.1,15.3,42.5,13.9"/>
<path class="st0" d="M39.2,11.4c0.6,0.2,1.2-0.1,1.4-0.6c0.2-0.6-0.1-1.2-0.6-1.4c-0.6-0.2-1.2,0.1-1.4,0.6
	C38.3,10.5,38.6,11.2,39.2,11.4"/>
<path class="st0" d="M46.3,12.8c-0.2,0.6,0.1,1.2,0.6,1.4c0.6,0.2,1.2-0.1,1.4-0.6c0.2-0.6-0.1-1.2-0.6-1.4
	C47.1,12,46.5,12.3,46.3,12.8"/>
<path class="st0" d="M50,17.7c-1.6,4.2-6.2,6.3-10.4,4.8c-4.2-1.6-6.3-6.3-4.8-10.5c0.6-1.6,1.6-2.8,2.9-3.7
	c1.5,0.5,4.5,0.9,9.2-0.2C49.9,10.1,51.3,14.1,50,17.7 M25.9,22.3c-4.2,1.6-8.9-0.6-10.4-4.8c-1.6-4.2,0.6-8.9,4.8-10.4
	c4.2-1.6,8.9,0.6,10.4,4.8C32.2,16.1,30.1,20.8,25.9,22.3 M58.6,5.2c-4.2-1.3-6.7,0.7-7.9,2.2c-0.5-0.3-1.1-0.4-1.7-0.1
	c-0.9-0.8-2-1.5-3.2-1.9c-5.2-2-11.1,0.7-13.1,6c-0.1,0.1-0.1,0.3-0.1,0.5c-0.1-0.2-0.1-0.4-0.1-0.6c-1.4-3.7-4.7-6.1-8.4-6.5
	C24.8,1.1,20.6,0,20.6,0c0.7,2-3.4,5.3-3.4,5.3c0-1.4-0.7-1.9-0.7-1.9c-1,2.1-1.8,3.9-2.3,5.4h0c0,0-2.6,4.7-0.3,10.1
	c2.2,4.8,7.7,7.2,12.7,5.3c3-1.1,5.2-3.6,6.1-6.4c0.9,2.9,3.1,5.4,6.1,6.6c5.2,2,11.1-0.7,13.1-6c0.9-2.3,0.8-4.7,0-6.9
	c0.2-0.2,0.3-0.4,0.4-0.6c1.1,0.5,2.1,1.9,0.9,6c-2.1,7.3,3.7,7.9,4.8,8.2c1.1,0.3,1.1,0,1.1,0c-4.1-2.4,0.7-6.1,2.7-9.4
	C63.2,13.5,64.8,7.1,58.6,5.2"/>
<path class="st0" d="M71.3,9.3c-0.5,0-0.9,0.5-0.9,1.4c0,1,0.4,1.4,0.9,1.4c0.8,0,0.9-0.8,0.9-1.4C72.2,9.8,71.8,9.3,71.3,9.3
	 M71.3,13c-1.2,0-1.9-0.9-1.9-2.3c0-1.3,0.7-2.3,1.9-2.3c1.2,0,2,0.9,2,2.3C73.2,12.1,72.5,13,71.3,13 M66.1,13.5l-0.9-0.6L71.1,4
	L72,4.5L66.1,13.5z M66.1,5.2c-0.5,0-0.9,0.5-0.9,1.4c0,1,0.4,1.4,0.9,1.4c0.8,0,0.9-0.8,0.9-1.4C66.9,5.6,66.6,5.2,66.1,5.2
	 M66,8.9c-1.2,0-1.9-0.9-1.9-2.3c0-1.3,0.7-2.3,1.9-2.3c1.2,0,2,0.9,2,2.3C68,8,67.3,8.9,66,8.9"/>
</svg>
