<?xml version="1.0" encoding="utf-8"?>
<!-- Generator: Adobe Illustrator 22.0.1, SVG Export Plug-In . SVG Version: 6.00 Build 0)  -->
<svg version="1.1" id="Слой_1" xmlns="http://www.w3.org/2000/svg" xmlns:xlink="http://www.w3.org/1999/xlink" x="0px" y="0px"
	 viewBox="0 0 63 73.7" style="enable-background:new 0 0 63 73.7;" xml:space="preserve">
<style type="text/css">
	.st0{fill:#6B247E;}
	.st1{fill:#F2F2F2;}
	.st2{fill:#87CFE8;}
	.st3{fill:#C4E5F0;}
	.st4{fill:#D6A47E;}
	.st5{fill:#07B1D9;}
</style>
<path class="st0" d="M31.5,0C48.9,0,63,14.1,63,31.5S48.9,63,31.5,63C14.1,63,0,48.9,0,31.5c0-16,11.3-29,27.1-31.2L31.5,0z"/>
<path class="st1" d="M31.5,7.9c-2.6,0-4.8,0.4-7.3,1.2c-9.9,3.2-16.3,12-16.3,22.5c0,13.1,10.6,23.6,23.6,23.6s23.6-10.6,23.6-23.6
	S44.6,7.9,31.5,7.9"/>
<path class="st2" d="M17.7,64.1c-1.6,0-2.9,1.3-2.9,2.9c0,1.6,1.3,2.9,2.9,2.9c1.6,0,2.9-1.3,2.9-2.9C20.6,65.4,19.3,64.1,17.7,64.1
	 M16.9,69c-0.6,0-1.1-0.5-1.1-1.1s0.5-1.1,1.1-1.1c0.6,0,1.1,0.5,1.1,1.1S17.5,69,16.9,69"/>
<path class="st3" d="M16.9,66.8c-0.6,0-1.1,0.5-1.1,1.1c0,0.6,0.5,1.1,1.1,1.1c0.6,0,1.1-0.5,1.1-1.1C18,67.2,17.5,66.8,16.9,66.8"
	/>
<path class="st4" d="M33.9,73.2c-0.6-0.6-0.6-1.7,0-2.3l0.2-0.2l-0.5-0.2L32.1,72c-0.6,0.6-1.7,0.6-2.3,0c-0.6-0.6-0.6-1.7,0-2.3
	l0.6-0.6l-0.5-0.2l-1.6,1.6c-0.6,0.6-1.7,0.6-2.3,0c-0.6-0.6-0.6-1.7,0-2.3l0.9-0.9c-0.1-0.1-0.2-0.3-0.3-0.5l-5.4,5.4
	c-0.6,0.6-1.7,0.6-2.3,0c-0.6-0.6-0.6-1.7,0-2.3l9.4-9.4l0.9-0.9l0.5-0.5h-4.7c-0.9,0-1.7-0.9-1.7-1.9c0-1.1,0.7-1.9,1.7-1.9h9.5
	c1-0.2,2.1,0,3,0.9l5.2,5.3c1.5,1.5,1.6,3.7,0.3,5.3l0,0.1l-0.1,0.1c0,0-0.1,0.1-0.1,0.1l-0.1,0.1l-4,4l-2.4,2.4
	C35.6,73.9,34.6,73.9,33.9,73.2"/>
<rect x="39.5" y="50.6" transform="matrix(0.7071 -0.7071 0.7071 0.7071 -28.4013 46.3933)" class="st5" width="4.6" height="13.8"/>
<g>
	<path class="st0" d="M19.1,32.9v-5.8l-1.7,1.1l-0.7-1.1l2.8-1.9h1.2v7.7H19.1z"/>
	<path class="st0" d="M26.7,33.1c-2,0-3.2-1.6-3.2-4.1c0-2.4,1.2-4,3.2-4c2,0,3.2,1.6,3.2,4C30,31.5,28.8,33.1,26.7,33.1z
		 M26.8,26.4c-1,0-1.6,0.9-1.6,2.7c0,1.8,0.6,2.7,1.6,2.7c1,0,1.6-0.9,1.6-2.7C28.4,27.3,27.7,26.4,26.8,26.4z"/>
	<path class="st0" d="M34.2,33.1c-2,0-3.2-1.6-3.2-4.1c0-2.4,1.2-4,3.2-4c2,0,3.2,1.6,3.2,4C37.4,31.5,36.2,33.1,34.2,33.1z
		 M34.2,26.4c-1,0-1.6,0.9-1.6,2.7c0,1.8,0.6,2.7,1.6,2.7c1,0,1.6-0.9,1.6-2.7C35.8,27.3,35.1,26.4,34.2,26.4z"/>
	<path class="st0" d="M40.3,29.3c-1.1,0-1.7-0.8-1.7-2.1c0-1.2,0.7-2.1,1.7-2.1c1.1,0,1.8,0.8,1.8,2C42.1,28.4,41.4,29.3,40.3,29.3z
		 M40.3,25.9c-0.5,0-0.8,0.4-0.8,1.3c0,0.9,0.3,1.3,0.8,1.3c0.7,0,0.8-0.7,0.8-1.3C41.1,26.3,40.8,25.9,40.3,25.9z M40.4,33.4
		l-0.8-0.5l5.3-8.1l0.8,0.5L40.4,33.4z M45,33c-1.1,0-1.7-0.8-1.7-2.1c0-1.2,0.7-2.1,1.7-2.1s1.8,0.8,1.8,2C46.8,32.2,46.2,33,45,33
		z M45.1,29.7c-0.5,0-0.8,0.4-0.8,1.3c0,0.9,0.3,1.3,0.8,1.3c0.7,0,0.8-0.7,0.8-1.3C45.9,30.1,45.5,29.7,45.1,29.7z"/>
</g>
<g>
	<path class="st0" d="M21.3,42.4v-1.7c0.2,0,0.3,0,0.4-0.1c0.1-0.1,0.1-0.2,0.2-0.4c0.1-0.2,0.1-0.4,0.1-0.5c0-0.2,0.1-0.3,0.1-0.3
		l0.5-2.1h2.3v3.4h0.5v1.7h-0.7v-1H22v1H21.3z M24.2,40.7v-2.9h-1.1l-0.4,1.6c0,0,0,0.1,0,0.2c0,0.1,0,0.2-0.1,0.2
		c0,0,0,0.1-0.1,0.2c0,0.1,0,0.2-0.1,0.2c0,0,0,0.1-0.1,0.2c0,0.1-0.1,0.1-0.2,0.2H24.2z"/>
	<path class="st0" d="M28,40.8c0.4,0,0.8-0.1,1.2-0.3l0.3,0.5c-0.1,0.1-0.4,0.2-0.7,0.3c-0.3,0.1-0.6,0.1-0.8,0.1
		c-0.6,0-1.1-0.2-1.4-0.6c-0.3-0.4-0.5-0.9-0.5-1.5s0.2-1.2,0.5-1.6c0.3-0.4,0.8-0.6,1.3-0.6c0.5,0,1,0.2,1.3,0.5
		c0.3,0.4,0.5,0.9,0.5,1.5l0,0.3h-2.9c0,0.4,0.1,0.7,0.3,1S27.6,40.8,28,40.8z M28.9,38.9c0-0.4-0.1-0.8-0.4-1
		c-0.2-0.1-0.4-0.2-0.6-0.2c-0.3,0-0.5,0.1-0.7,0.3c-0.2,0.2-0.3,0.5-0.4,0.9H28.9z"/>
	<path class="st0" d="M32.1,41.3h-0.7v-3.5H30v-0.6h3.4v0.6h-1.3V41.3z"/>
	<path class="st0" d="M35.6,40.8c0.4,0,0.8-0.1,1.2-0.3l0.3,0.5c-0.1,0.1-0.4,0.2-0.7,0.3c-0.3,0.1-0.6,0.1-0.8,0.1
		c-0.6,0-1.1-0.2-1.4-0.6c-0.3-0.4-0.5-0.9-0.5-1.5s0.2-1.2,0.5-1.6c0.3-0.4,0.8-0.6,1.3-0.6c0.5,0,1,0.2,1.3,0.5
		c0.3,0.4,0.5,0.9,0.5,1.5l0,0.3h-2.9c0,0.4,0.1,0.7,0.3,1S35.2,40.8,35.6,40.8z M36.5,38.9c0-0.4-0.1-0.8-0.4-1
		c-0.2-0.1-0.4-0.2-0.6-0.2c-0.3,0-0.5,0.1-0.7,0.3c-0.2,0.2-0.3,0.5-0.4,0.9H36.5z"/>
	<path class="st0" d="M38.1,41.3v-4.1h0.7l0,3l1.9-3h0.7v4.1h-0.7l0-3l-1.9,3H38.1z M41,35.5c0,0.3-0.1,0.6-0.3,0.8
		c-0.2,0.2-0.5,0.3-0.8,0.3c-0.3,0-0.6-0.1-0.8-0.3c-0.2-0.2-0.3-0.5-0.3-0.8h0.5c0,0.2,0.1,0.3,0.2,0.4c0.1,0.1,0.3,0.1,0.5,0.1
		c0.2,0,0.4,0,0.5-0.1c0.1-0.1,0.2-0.2,0.2-0.4H41z"/>
</g>
</svg>
