<?xml version="1.0" encoding="UTF-8" standalone="no"?>
<svg
   xmlns:dc="http://purl.org/dc/elements/1.1/"
   xmlns:cc="http://creativecommons.org/ns#"
   xmlns:rdf="http://www.w3.org/1999/02/22-rdf-syntax-ns#"
   xmlns:svg="http://www.w3.org/2000/svg"
   xmlns="http://www.w3.org/2000/svg"
   viewBox="0 0 86.853333 86.839996"
   height="86.839996"
   width="86.853333"
   xml:space="preserve"
   id="svg2"
   version="1.1"><metadata
     id="metadata8"><rdf:RDF><cc:Work
         rdf:about=""><dc:format>image/svg+xml</dc:format><dc:type
           rdf:resource="http://purl.org/dc/dcmitype/StillImage" /></cc:Work></rdf:RDF></metadata><defs
     id="defs6"><clipPath
       id="clipPath26"
       clipPathUnits="userSpaceOnUse"><path
         id="path24"
         d="M 173.211,535.531 C 57.2969,451.324 31.6094,289.09 115.816,173.172 200.027,57.2656 362.273,31.5703 478.18,115.781 c 69.543,50.535 106.933,123.914 106.933,209.883 0,143.266 -116.152,259.418 -259.422,259.418 -57.316,0 -106.125,-15.859 -152.48,-49.551" /></clipPath><clipPath
       id="clipPath36"
       clipPathUnits="userSpaceOnUse"><path
         id="path34"
         d="m 244.449,307.391 c -21.383,0 -38.82,-18.211 -38.82,-40.614 v -76.066 c 0,-22.527 17.609,-40.867 39.129,-40.762 21.519,0.098 39.14,18.625 39.14,41.133 v 75.031 c 0,22.52 -17.621,41.09 -39.14,41.278 -0.098,0 -0.199,0 -0.309,0" /></clipPath><clipPath
       id="clipPath42"
       clipPathUnits="userSpaceOnUse"><path
         id="path40"
         d="m 205.625,149.84 h 78.2695 V 307.387 H 205.625 Z" /></clipPath><linearGradient
       id="linearGradient48"
       gradientTransform="matrix(0,596.391,336.451,0,-123.474,9034.73)"
       gradientUnits="userSpaceOnUse"
       y2="0"
       x2="0.89525199"
       y1="0"
       x1="0"><stop
         id="stop44"
         offset="0"
         style="stop-opacity:1;stop-color:#fcc49a" /><stop
         id="stop46"
         offset="1"
         style="stop-opacity:1;stop-color:#f9a56e" /></linearGradient><clipPath
       id="clipPath58"
       clipPathUnits="userSpaceOnUse"><path
         id="path56"
         d="m 312.379,334.703 v -48.211 c 0,0 12.828,5.5 12.828,18.613 v 30.379 c 0,0 -0.519,5.77 -6.019,5.77 -4.833,0 -6.809,-6.551 -6.809,-6.551" /></clipPath><clipPath
       id="clipPath64"
       clipPathUnits="userSpaceOnUse"><path
         id="path62"
         d="m 312.375,286.488 h 12.832 v 54.7578 h -12.832 z" /></clipPath><linearGradient
       id="linearGradient70"
       gradientTransform="matrix(48.6292,0,0,-247.418,300.865,9779.37)"
       gradientUnits="userSpaceOnUse"
       y2="0"
       x2="0.89525199"
       y1="0"
       x1="0"><stop
         id="stop66"
         offset="0"
         style="stop-opacity:1;stop-color:#fcc49a" /><stop
         id="stop68"
         offset="1"
         style="stop-opacity:1;stop-color:#f9a56e" /></linearGradient><linearGradient
       id="linearGradient78"
       gradientTransform="matrix(48.6292,0,0,-247.418,300.865,9779.37)"
       gradientUnits="userSpaceOnUse"
       y2="0"
       x2="0.97910303"
       y1="0"
       x1="0.89525199"><stop
         id="stop74"
         offset="0"
         style="stop-opacity:1;stop-color:#f9a56e" /><stop
         id="stop76"
         offset="1"
         style="stop-opacity:1;stop-color:#f7956a" /></linearGradient><clipPath
       id="clipPath88"
       clipPathUnits="userSpaceOnUse"><path
         id="path86"
         d="m 166.121,335.484 v -30.379 c 0,-13.113 12.824,-18.613 12.824,-18.613 v 48.211 c 0,0 -1.976,6.551 -6.804,6.551 -5.504,0 -6.02,-5.77 -6.02,-5.77" /></clipPath><clipPath
       id="clipPath94"
       clipPathUnits="userSpaceOnUse"><path
         id="path92"
         d="m 166.117,286.488 h 12.8281 v 54.7578 H 166.117 Z" /></clipPath><linearGradient
       id="linearGradient100"
       gradientTransform="matrix(48.6292,0,0,-247.418,-253.145,9779.37)"
       gradientUnits="userSpaceOnUse"
       y2="0"
       x2="0.97910303"
       y1="0"
       x1="0.89525199"><stop
         id="stop96"
         offset="0"
         style="stop-opacity:1;stop-color:#f9a56e" /><stop
         id="stop98"
         offset="1"
         style="stop-opacity:1;stop-color:#f7956a" /></linearGradient><clipPath
       id="clipPath110"
       clipPathUnits="userSpaceOnUse"><path
         id="path108"
         d="M 173.211,535.531 C 57.2969,451.324 31.6094,289.09 115.816,173.172 200.027,57.2656 362.273,31.5703 478.18,115.781 c 69.543,50.535 106.933,123.914 106.933,209.883 0,143.266 -116.152,259.418 -259.422,259.418 -57.316,0 -106.125,-15.859 -152.48,-49.551" /></clipPath></defs><g
     transform="matrix(1.3333333,0,0,-1.3333333,0,86.84)"
     id="g10"><g
       transform="scale(0.1)"
       id="g12"><path
         id="path14"
         style="fill:#b7b6b8;fill-opacity:1;fill-rule:nonzero;stroke:none"
         d="m 325.68,325.684 319.64,62.129 C 679.637,211.277 564.344,40.3594 387.809,6.04297 211.281,-28.2734 40.3633,87.0195 6.04297,263.555 -28.2695,440.082 87.0234,611 263.551,645.32 c 21.183,4.114 40.551,5.985 62.129,5.985 V 325.684" /><path
         id="path16"
         style="fill:#6c217f;fill-opacity:1;fill-rule:nonzero;stroke:none"
         d="m 325.68,325.684 v 325.621 c 158.254,0 289.445,-108.141 319.64,-263.492 L 325.68,325.684" /><path
         id="path18"
         style="fill:#ffffff;fill-opacity:1;fill-rule:nonzero;stroke:none"
         d="m 325.691,585.082 c -57.308,0 -106.121,-15.859 -152.48,-49.539 C 57.3008,451.324 31.6016,289.09 115.82,173.184 200.031,57.2734 362.262,31.5703 478.172,115.789 c 69.551,50.527 106.941,123.906 106.941,209.875 0,143.266 -116.152,259.418 -259.422,259.418" /><g
         id="g20"><g
           clip-path="url(#clipPath26)"
           id="g22"><path
             id="path28"
             style="fill:#f58024;fill-opacity:1;fill-rule:nonzero;stroke:none"
             d="m 399.676,67.1094 -0.762,16.0234 C 398.914,147.832 335.133,200.77 255.32,200.77 H 228.141 C 148.328,200.77 77.7695,147.832 77.7695,83.1328 L 77,67.1094 h 322.676" /></g></g><g
         id="g30"><g
           clip-path="url(#clipPath36)"
           id="g32"><g
             clip-path="url(#clipPath42)"
             id="g38"><path
               id="path50"
               style="fill:url(#linearGradient48);fill-opacity:1;fill-rule:nonzero;stroke:none"
               d="m 242,149 v 1 h -6 v 1 h -3 v 1 h -4 v 1 h -2 v 1 h -1 v 1 h -2 v 1 h -2 v 1 h -1 v 1 h -1 v 1 h -1 v 1 h -1 v 1 h -2 v 2 h -1 v 1 h -1 v 1 h -1 v 2 h -1 v 1 h -1 v 2 h -1 v 2 h -1 v 2 h -1 v 3 h -1 v 3 h -1 v 5 h -1 v 87 h 1 v 5 h 1 v 4 h 1 v 3 h 1 v 2 h 1 v 2 h 1 v 1 h 1 v 2 h 1 v 1 h 1 v 1 h 1 v 2 h 1 v 1 h 1 v 1 h 1 v 1 h 1 v 1 h 2 v 1 h 1 v 1 h 1 v 1 h 2 v 1 h 2 v 1 h 2 v 1 h 2 v 1 h 3 v 1 h 5 v 1 h 11 v -1 h 5 v -1 h 3 v -1 h 2 v -1 h 2 v -1 h 2 v -1 h 2 v -1 h 1 v -1 h 1 v -1 h 2 v -1 h 1 v -1 h 1 v -1 h 1 v -1 h 1 v -1 h 1 v -2 h 1 v -1 h 1 v -1 h 1 v -2 h 1 v -2 h 1 v -2 h 1 v -2 h 1 v -3 h 1 v -4 h 1 v -93 h -1 v -3 h -1 v -4 h -1 v -2 h -1 v -2 h -1 v -2 h -1 v -2 h -1 v -1 h -1 v -1 h -1 v -1 h -1 v -2 h -1 v -1 h -1 v -1 h -2 v -1 h -1 v -1 h -1 v -1 h -1 v -1 h -2 v -1 h -2 v -1 h -1 v -1 h -2 v -1 h -3 v -1 h -3 v -1 h -6 v -1" /></g></g></g><g
         id="g52"><g
           clip-path="url(#clipPath58)"
           id="g54"><g
             clip-path="url(#clipPath64)"
             id="g60"><path
               id="path72"
               style="fill:url(#linearGradient70);fill-opacity:1;fill-rule:nonzero;stroke:none"
               d="m 312,286 v 51 h 1 v 2 h 1 v 1 h 1 v 1 h 2 v 1 h 5 v -1 h 1 v -1 h 1 v -1 h 1 v -2 h 1 v -35 h -1 v -3 h -1 v -3 h -1 v -1 h -1 v -2 h -1 v -1 h -1 v -1 h -1 v -1 h -1 v -1 h -1 v -1 h -2 v -1 h -1 v -1" /><path
               id="path80"
               style="fill:url(#linearGradient78);fill-opacity:1;fill-rule:nonzero;stroke:none"
               d="m 312,286 v 51 h 1 v 2 h 1 v 1 h 1 v 1 h 2 v 1 h 5 v -1 h 1 v -1 h 1 v -1 h 1 v -2 h 1 v -35 h -1 v -3 h -1 v -3 h -1 v -1 h -1 v -2 h -1 v -1 h -1 v -1 h -1 v -1 h -1 v -1 h -1 v -1 h -2 v -1 h -1 v -1" /></g></g></g><g
         id="g82"><g
           clip-path="url(#clipPath88)"
           id="g84"><g
             clip-path="url(#clipPath94)"
             id="g90"><path
               id="path102"
               style="fill:url(#linearGradient100);fill-opacity:1;fill-rule:nonzero;stroke:none"
               d="m 177,286 v 1 h -1 v 1 h -1 v 1 h -2 v 1 h -1 v 1 h -1 v 1 h -1 v 2 h -1 v 1 h -1 v 2 h -1 v 3 h -1 v 39 h 1 v 1 h 1 v 1 h 2 v 1 h 4 v -1 h 2 v -1 h 1 v -1 h 1 v -2 h 1 v -51" /></g></g></g><g
         id="g104"><g
           clip-path="url(#clipPath110)"
           id="g106"><path
             id="path112"
             style="fill:#fcc299;fill-opacity:1;fill-rule:nonzero;stroke:none"
             d="m 280.773,432.227 c -10.847,0 -23.082,0.253 -29.609,0.398 v 0.121 c 0,0 -0.992,-0.016 -2.68,-0.047 -1.281,0.031 -2.031,0.047 -2.031,0.047 v -0.09 c -7.98,-0.148 -24.39,-0.429 -35.898,-0.429 -30.91,0 -35.629,-25.938 -35.629,-25.938 0,0 -2.973,-116.594 -2.973,-134.414 0,-35.312 55.641,-64.973 55.641,-64.973 h 36.136 c 0,0 55.641,29.661 55.641,64.973 0,17.82 -2.969,134.414 -2.969,134.414 0,0 -4.707,25.938 -35.629,25.938" /><path
             id="path114"
             style="fill:#ffffff;fill-opacity:1;fill-rule:nonzero;stroke:none"
             d="m 215.074,264.383 h 60.121 c 0,0 -1.57,-17.215 -30.961,-17.215 -29.386,0 -29.16,17.215 -29.16,17.215" /><path
             id="path116"
             style="fill:#82572e;fill-opacity:1;fill-rule:nonzero;stroke:none"
             d="m 289.254,405.605 c 0,0 24.328,-1.578 24.328,-16.777 0,-15.199 -0.598,-33.875 -0.598,-53.691 5.032,5.019 12.028,2.527 12.028,2.527 0,0 6.441,61.672 1.773,73.434 -5.086,12.777 -11.422,17.808 -11.422,17.808 0,0 0,21.489 -32.64,32.489 0,0 -16.282,4.722 -48.59,4.722 -32.32,0 -54.477,-17.289 -58.281,-30.922 0,0 -15.629,-10.308 -10.61,-51.519 0,0 0.274,-26.727 0.274,-46.641 0,0 6.183,3.723 12.976,-3.082 0,14.152 -1.879,69.035 5.543,69.035 0,0 39.516,-13.004 105.219,2.617" /><path
             id="path118"
             style="fill:none;stroke:#f7946b;stroke-width:3.92000008;stroke-linecap:round;stroke-linejoin:round;stroke-miterlimit:10;stroke-dasharray:none;stroke-opacity:1"
             d="m 231.945,289.637 c 2.129,-3.856 5.457,-8.094 13.852,-8.094 8.398,0 12.558,5.223 13.848,9.383" /><path
             id="path120"
             style="fill:#000000;fill-opacity:1;fill-rule:nonzero;stroke:none"
             d="m 217.938,335.879 c 0,-3.102 -2.52,-5.621 -5.622,-5.621 -3.101,0 -5.621,2.519 -5.621,5.621 0,3.101 2.52,5.617 5.621,5.617 3.102,0 5.622,-2.516 5.622,-5.617" /><path
             id="path122"
             style="fill:#000000;fill-opacity:1;fill-rule:nonzero;stroke:none"
             d="m 275.035,335.879 c 0,-3.102 2.524,-5.621 5.621,-5.621 3.102,0 5.621,2.519 5.621,5.621 0,3.101 -2.519,5.617 -5.621,5.617 -3.097,0 -5.621,-2.516 -5.621,-5.617" /><path
             id="path124"
             style="fill:#3d2414;fill-opacity:1;fill-rule:nonzero;stroke:none"
             d="m 371.492,361.004 c 0,0 -9.453,-45.801 -7.656,-73.484 3.25,-50.383 11.504,-167.442 -17.598,-167.442 0,0 37.383,-37.3944 64.09,-10.683 26.699,26.699 9.18,111.882 9.18,111.882 l -9.18,60.528 -38.836,79.199" /><path
             id="path126"
             style="fill:#3d2414;fill-opacity:1;fill-rule:nonzero;stroke:none"
             d="m 537.75,333.668 c 0,0 6.133,-6.691 4.074,-37.313 -3.351,-49.792 -11.582,-176.277 21.914,-176.277 0,0 -44.824,-37.3944 -76.836,-10.695 -32.023,26.711 -11.007,111.887 -11.007,111.887 l 11.007,60.527 50.848,51.871" /><path
             id="path128"
             style="fill:#6c217f;fill-opacity:1;fill-rule:nonzero;stroke:none"
             d="M 574.363,67.1094 H 328.93 c 0,0 3.8,74.6176 10.226,81.0546 6.446,6.434 6.848,27.508 111.035,27.508 104.2,0 108.399,-21.973 113.926,-27.508 5.528,-5.527 10.246,-81.0546 10.246,-81.0546" /><path
             id="path130"
             style="fill:#f0ba87;fill-opacity:1;fill-rule:nonzero;stroke:none"
             d="m 482.184,150.613 -29.286,-65.945 -30.078,65.945 2,110.657 h 55.364 l 2,-110.657" /><path
             id="path132"
             style="fill:#3d2414;fill-opacity:1;fill-rule:nonzero;stroke:none"
             d="m 367.438,324.867 c 0,-56.031 39.023,-101.48 87.187,-101.48 48.176,0 87.199,45.449 87.199,101.48 0,56.031 -23.965,101.488 -87.199,101.488 -63.23,0 -87.187,-45.457 -87.187,-101.488" /><path
             id="path134"
             style="fill:#fccc99;fill-opacity:1;fill-rule:nonzero;stroke:none"
             d="m 379.879,298.32 c 0,-26.172 4.25,-48.925 17.773,-70.41 14.864,-23.644 38.125,-40.156 56.047,-40.156 17.918,0 39.071,16.141 52.938,33.758 17.785,22.578 20.918,45.929 20.918,76.808 0,55.02 -23.907,87.567 -73.856,87.567 -49.933,0 -73.82,-32.547 -73.82,-87.567" /><path
             id="path136"
             style="fill:#3d2414;fill-opacity:1;fill-rule:nonzero;stroke:none"
             d="m 436.832,399.52 c 0,0 -7.519,-33.817 -61.902,-88.809 0,0 -15.996,31.863 23.457,78.199 23.418,27.52 38.445,10.61 38.445,10.61" /><path
             id="path138"
             style="fill:#3d2414;fill-opacity:1;fill-rule:nonzero;stroke:none"
             d="m 429.41,393.355 c 0,0 36.789,-67.789 103.586,-63.492 0,0 2.098,39.961 -59.297,69.871 -36.445,17.758 -44.289,-6.379 -44.289,-6.379" /><path
             id="path140"
             style="fill:#3d2414;fill-opacity:1;fill-rule:nonzero;stroke:none"
             d="m 417.398,385.895 c 0,0 -8.046,-61.024 72.442,-56.243 0,0 -18.856,74.61 -72.442,56.243" /><path
             id="path142"
             style="fill:#000000;fill-opacity:1;fill-rule:nonzero;stroke:none"
             d="m 495.094,290.43 c 0,-3 -2.43,-5.442 -5.438,-5.442 -3,0 -5.441,2.442 -5.441,5.442 0,2.996 2.441,5.437 5.441,5.437 3.008,0 5.438,-2.441 5.438,-5.437" /><path
             id="path144"
             style="fill:#000000;fill-opacity:1;fill-rule:nonzero;stroke:none"
             d="m 422.828,290.43 c 0,-3 -2.43,-5.442 -5.437,-5.442 -3,0 -5.442,2.442 -5.442,5.442 0,2.996 2.442,5.437 5.442,5.437 3.007,0 5.437,-2.441 5.437,-5.437" /><path
             id="path146"
             style="fill:#f28073;fill-opacity:1;fill-rule:nonzero;stroke:none"
             d="m 478.121,234.082 c 0,0 0,-13.535 -24.598,-13.535 -24.589,0 -24.589,13.535 -24.589,13.535 h 49.187" /><path
             id="path148"
             style="fill:none;stroke:#f7946b;stroke-width:3.25999999;stroke-linecap:round;stroke-linejoin:round;stroke-miterlimit:10;stroke-dasharray:none;stroke-opacity:1"
             d="m 448.59,258.543 c 0.84,-1.855 3.203,-3.211 6.035,-3.211 2.832,0 5.207,1.356 6.047,3.211" /></g></g></g></g></svg>