<?xml version="1.0" encoding="UTF-8" standalone="no"?>
<svg
   xmlns:dc="http://purl.org/dc/elements/1.1/"
   xmlns:cc="http://creativecommons.org/ns#"
   xmlns:rdf="http://www.w3.org/1999/02/22-rdf-syntax-ns#"
   xmlns:svg="http://www.w3.org/2000/svg"
   xmlns="http://www.w3.org/2000/svg"
   viewBox="0 0 86.839996 86.839996"
   height="86.839996"
   width="86.839996"
   xml:space="preserve"
   id="svg2"
   version="1.1"><metadata
     id="metadata8"><rdf:RDF><cc:Work
         rdf:about=""><dc:format>image/svg+xml</dc:format><dc:type
           rdf:resource="http://purl.org/dc/dcmitype/StillImage" /></cc:Work></rdf:RDF></metadata><defs
     id="defs6"><clipPath
       id="clipPath28"
       clipPathUnits="userSpaceOnUse"><path
         id="path26"
         d="M 173.188,535.543 C 57.2773,451.332 31.5859,289.102 115.801,173.184 200.008,57.2734 362.234,31.582 478.152,115.801 c 69.543,50.527 106.934,123.906 106.934,209.871 0,143.269 -116.141,259.422 -259.402,259.422 -57.317,0 -106.125,-15.86 -152.496,-49.551" /></clipPath><clipPath
       id="clipPath38"
       clipPathUnits="userSpaceOnUse"><path
         id="path36"
         d="m 244.406,307.383 c -21.371,0 -38.797,-18.211 -38.797,-40.617 v -76.063 c 0,-22.519 17.606,-40.859 39.129,-40.762 21.532,0.106 39.129,18.622 39.129,41.153 v 75.008 c 0,22.531 -17.597,41.101 -39.129,41.281 -0.109,0 -0.218,0 -0.332,0" /></clipPath><clipPath
       id="clipPath44"
       clipPathUnits="userSpaceOnUse"><path
         id="path42"
         d="m 205.609,149.836 h 78.2578 V 307.379 H 205.609 Z" /></clipPath><linearGradient
       id="linearGradient50"
       gradientTransform="matrix(0,596.391,336.451,0,2669.34,9034.69)"
       gradientUnits="userSpaceOnUse"
       y2="0"
       x2="0.89525199"
       y1="0"
       x1="0"><stop
         id="stop46"
         offset="0"
         style="stop-opacity:1;stop-color:#fac39a" /><stop
         id="stop48"
         offset="1"
         style="stop-opacity:1;stop-color:#f5a46f" /></linearGradient><clipPath
       id="clipPath60"
       clipPathUnits="userSpaceOnUse"><path
         id="path58"
         d="m 312.363,334.703 v -48.211 c 0,0 12.832,5.5 12.832,18.602 v 30.39 c 0,0 -0.527,5.766 -6.027,5.766 -4.832,0 -6.805,-6.547 -6.805,-6.547" /></clipPath><clipPath
       id="clipPath66"
       clipPathUnits="userSpaceOnUse"><path
         id="path64"
         d="m 312.359,286.488 h 12.8398 v 54.7578 H 312.359 Z" /></clipPath><linearGradient
       id="linearGradient72"
       gradientTransform="matrix(48.6292,0,0,-247.418,3093.68,9779.34)"
       gradientUnits="userSpaceOnUse"
       y2="0"
       x2="0.89525199"
       y1="0"
       x1="0"><stop
         id="stop68"
         offset="0"
         style="stop-opacity:1;stop-color:#fac39a" /><stop
         id="stop70"
         offset="1"
         style="stop-opacity:1;stop-color:#f5a46f" /></linearGradient><clipPath
       id="clipPath82"
       clipPathUnits="userSpaceOnUse"><path
         id="path80"
         d="m 166.098,335.484 v -30.39 c 0,-13.102 12.84,-18.602 12.84,-18.602 v 48.211 c 0,0 -1.981,6.547 -6.809,6.547 -5.508,0 -6.031,-5.766 -6.031,-5.766" /></clipPath><clipPath
       id="clipPath88"
       clipPathUnits="userSpaceOnUse"><path
         id="path86"
         d="m 166.098,286.488 h 12.8398 v 54.7578 H 166.098 Z" /></clipPath><linearGradient
       id="linearGradient94"
       gradientTransform="matrix(48.6292,0,0,-247.418,2539.67,9779.34)"
       gradientUnits="userSpaceOnUse"
       y2="0"
       x2="0.89525199"
       y1="0"
       x1="0"><stop
         id="stop90"
         offset="0"
         style="stop-opacity:1;stop-color:#fac39a" /><stop
         id="stop92"
         offset="1"
         style="stop-opacity:1;stop-color:#f5a46f" /></linearGradient><clipPath
       id="clipPath104"
       clipPathUnits="userSpaceOnUse"><path
         id="path102"
         d="M 173.188,535.543 C 57.2773,451.332 31.5859,289.102 115.801,173.184 200.008,57.2734 362.234,31.582 478.152,115.801 c 69.543,50.527 106.934,123.906 106.934,209.871 0,143.269 -116.141,259.422 -259.402,259.422 -57.317,0 -106.125,-15.86 -152.496,-49.551" /></clipPath></defs><g
     transform="matrix(1.3333333,0,0,-1.3333333,0,86.84)"
     id="g10"><g
       transform="scale(0.1)"
       id="g12"><g
         transform="scale(10)"
         id="g14" /><path
         id="path16"
         style="fill:#b6b5b7;fill-opacity:1;fill-rule:nonzero;stroke:none"
         d="M 325.711,325.707 629.695,209.012 C 565.242,41.1211 376.902,-42.7344 209.016,21.7188 41.125,86.1719 -42.7344,274.512 21.7188,442.398 70.6953,569.996 189.035,651.328 325.711,651.328 V 325.707" /><path
         id="path18"
         style="fill:#6a247e;fill-opacity:1;fill-rule:nonzero;stroke:none"
         d="m 325.711,325.707 v 325.621 c 179.824,0 325.617,-145.793 325.617,-325.621 0,-43.16 -6.164,-76.402 -21.633,-116.695 L 325.711,325.707" /><path
         id="path20"
         style="fill:#ffffff;fill-opacity:1;fill-rule:nonzero;stroke:none"
         d="m 325.672,585.094 c -57.309,0 -106.117,-15.86 -152.481,-49.543 C 57.2852,451.332 31.582,289.102 115.793,173.191 200.012,57.2852 362.246,31.582 478.152,115.801 c 69.551,50.527 106.946,123.914 106.946,209.871 0,143.269 -116.153,259.422 -259.426,259.422" /><g
         id="g22"><g
           clip-path="url(#clipPath28)"
           id="g24"><path
             id="path30"
             style="fill:#ef8028;fill-opacity:1;fill-rule:nonzero;stroke:none"
             d="m 399.656,67.1094 -0.761,16.0234 c 0,64.7072 -63.79,117.6482 -143.594,117.6482 H 228.117 C 148.309,200.781 77.7539,147.84 77.7539,83.1328 L 76.9805,67.1094 H 399.656" /></g></g><g
         id="g32"><g
           clip-path="url(#clipPath38)"
           id="g34"><g
             clip-path="url(#clipPath44)"
             id="g40"><path
               id="path52"
               style="fill:url(#linearGradient50);fill-opacity:1;fill-rule:nonzero;stroke:none"
               d="m 242,149 v 1 h -6 v 1 h -4 v 1 h -3 v 1 h -2 v 1 h -1 v 1 h -2 v 1 h -2 v 1 h -1 v 1 h -1 v 1 h -1 v 1 h -1 v 1 h -2 v 2 h -1 v 1 h -1 v 1 h -1 v 2 h -1 v 1 h -1 v 2 h -1 v 2 h -1 v 2 h -1 v 3 h -1 v 3 h -1 v 5 h -1 v 87 h 1 v 5 h 1 v 4 h 1 v 3 h 1 v 2 h 1 v 2 h 1 v 1 h 1 v 2 h 1 v 1 h 1 v 1 h 1 v 2 h 1 v 1 h 1 v 1 h 1 v 1 h 1 v 1 h 2 v 1 h 1 v 1 h 1 v 1 h 2 v 1 h 2 v 1 h 2 v 1 h 2 v 1 h 3 v 1 h 5 v 1 h 11 v -1 h 5 v -1 h 3 v -1 h 2 v -1 h 2 v -1 h 2 v -1 h 2 v -1 h 1 v -1 h 1 v -1 h 2 v -1 h 1 v -1 h 1 v -1 h 1 v -1 h 1 v -1 h 1 v -2 h 1 v -1 h 1 v -1 h 1 v -2 h 1 v -2 h 1 v -2 h 1 v -2 h 1 v -4 h 1 v -3 h 1 v -93 h -1 v -3 h -1 v -4 h -1 v -2 h -1 v -2 h -1 v -2 h -1 v -2 h -1 v -1 h -1 v -1 h -1 v -1 h -1 v -2 h -1 v -1 h -1 v -1 h -2 v -1 h -1 v -1 h -1 v -1 h -1 v -1 h -2 v -1 h -2 v -1 h -1 v -1 h -2 v -1 h -3 v -1 h -3 v -1 h -6 v -1" /></g></g></g><g
         id="g54"><g
           clip-path="url(#clipPath60)"
           id="g56"><g
             clip-path="url(#clipPath66)"
             id="g62"><path
               id="path74"
               style="fill:url(#linearGradient72);fill-opacity:1;fill-rule:nonzero;stroke:none"
               d="m 312,286 v 51 h 1 v 2 h 1 v 1 h 1 v 1 h 2 v 1 h 5 v -1 h 1 v -1 h 1 v -1 h 1 v -2 h 1 v -35 h -1 v -3 h -1 v -3 h -1 v -1 h -1 v -2 h -1 v -1 h -1 v -1 h -1 v -1 h -1 v -1 h -1 v -1 h -2 v -1 h -1 v -1" /></g></g></g><g
         id="g76"><g
           clip-path="url(#clipPath82)"
           id="g78"><g
             clip-path="url(#clipPath88)"
             id="g84"><path
               id="path96"
               style="fill:url(#linearGradient94);fill-opacity:1;fill-rule:nonzero;stroke:none"
               d="m 177,286 v 1 h -1 v 1 h -1 v 1 h -2 v 1 h -1 v 1 h -1 v 1 h -1 v 2 h -1 v 1 h -1 v 1 h -1 v 4 h -1 v 39 h 1 v 1 h 1 v 1 h 2 v 1 h 4 v -1 h 2 v -1 h 1 v -1 h 1 v -2 h 1 v -51" /></g></g></g><g
         id="g98"><g
           clip-path="url(#clipPath104)"
           id="g100"><path
             id="path106"
             style="fill:#f8c098;fill-opacity:1;fill-rule:nonzero;stroke:none"
             d="m 280.754,432.227 c -10.848,0 -23.078,0.25 -29.609,0.402 v 0.113 c 0,0 -0.989,-0.019 -2.68,-0.047 -1.277,0.028 -2.031,0.047 -2.031,0.047 v -0.086 c -7.977,-0.152 -24.391,-0.429 -35.899,-0.429 -30.906,0 -35.629,-25.942 -35.629,-25.942 0,0 -2.968,-116.59 -2.968,-134.41 0,-35.324 55.64,-64.973 55.64,-64.973 h 36.137 c 0,0 55.64,29.649 55.64,64.973 0,17.82 -2.968,134.41 -2.968,134.41 0,0 -4.707,25.942 -35.633,25.942" /><path
             id="path108"
             style="fill:#ffffff;fill-opacity:1;fill-rule:nonzero;stroke:none"
             d="m 215.059,264.375 h 60.121 c 0,0 -1.575,-17.207 -30.961,-17.207 -29.391,0 -29.16,17.207 -29.16,17.207" /><path
             id="path110"
             style="fill:#82582f;fill-opacity:1;fill-rule:nonzero;stroke:none"
             d="m 289.238,405.605 c 0,0 24.325,-1.582 24.325,-16.781 0,-15.203 -0.594,-33.867 -0.594,-53.687 5.027,5.019 12.031,2.527 12.031,2.527 0,0 6.434,61.672 1.766,73.43 -5.078,12.777 -11.426,17.812 -11.426,17.812 0,0 0,21.489 -32.637,32.489 0,0 -16.277,4.718 -48.59,4.718 -32.316,0 -54.48,-17.289 -58.277,-30.918 0,0 -15.633,-10.312 -10.613,-51.523 0,0 0.273,-26.731 0.273,-46.637 0,0 6.188,3.719 12.981,-3.082 0,14.152 -1.883,69.031 5.535,69.031 0,0 39.523,-13 105.226,2.621" /><path
             id="path112"
             style="fill:none;stroke:#f2926c;stroke-width:3.92000008;stroke-linecap:round;stroke-linejoin:round;stroke-miterlimit:10;stroke-dasharray:none;stroke-opacity:1"
             d="m 231.926,289.637 c 2.129,-3.856 5.461,-8.094 13.847,-8.094 8.407,0 12.567,5.223 13.856,9.383" /><path
             id="path114"
             style="fill:#000000;fill-opacity:1;fill-rule:nonzero;stroke:none"
             d="m 217.918,335.875 c 0,-3.102 -2.52,-5.621 -5.621,-5.621 -3.098,0 -5.617,2.519 -5.617,5.621 0,3.098 2.519,5.617 5.617,5.617 3.101,0 5.621,-2.519 5.621,-5.617" /><path
             id="path116"
             style="fill:#000000;fill-opacity:1;fill-rule:nonzero;stroke:none"
             d="m 275.02,335.875 c 0,-3.102 2.507,-5.621 5.617,-5.621 3.101,0 5.613,2.519 5.613,5.621 0,3.098 -2.512,5.617 -5.613,5.617 -3.11,0 -5.617,-2.519 -5.617,-5.617" /><path
             id="path118"
             style="fill:#3d2415;fill-opacity:1;fill-rule:nonzero;stroke:none"
             d="m 371.473,361 c 0,0 -9.453,-45.801 -7.657,-73.492 3.254,-50.379 11.504,-167.442 -17.597,-167.442 0,0 37.383,-37.3824 64.094,-10.671 26.699,26.699 9.179,111.875 9.179,111.875 l -9.179,60.535 -38.84,79.195" /><path
             id="path120"
             style="fill:#3d2415;fill-opacity:1;fill-rule:nonzero;stroke:none"
             d="m 537.734,333.668 c 0,0 6.133,-6.691 4.071,-37.313 -3.348,-49.804 -11.582,-176.277 21.914,-176.277 0,0 -44.824,-37.3944 -76.836,-10.695 -32.031,26.711 -11.004,111.887 -11.004,111.887 l 11.004,60.527 50.851,51.871" /><path
             id="path122"
             style="fill:#6a247e;fill-opacity:1;fill-rule:nonzero;stroke:none"
             d="M 574.344,67.1094 H 328.906 c 0,0 3.809,74.6176 10.235,81.0546 6.433,6.434 6.836,27.508 111.023,27.508 104.211,0 108.41,-21.973 113.938,-27.508 5.527,-5.535 10.242,-81.0546 10.242,-81.0546" /><path
             id="path124"
             style="fill:#efb986;fill-opacity:1;fill-rule:nonzero;stroke:none"
             d="m 482.168,150.613 -29.297,-65.945 -30.07,65.945 2.004,110.645 h 55.359 l 2.004,-110.645" /><path
             id="path126"
             style="fill:#3d2415;fill-opacity:1;fill-rule:nonzero;stroke:none"
             d="m 367.41,324.867 c 0,-56.027 39.035,-101.48 87.199,-101.48 48.164,0 87.196,45.453 87.196,101.48 0,56.031 -23.965,101.488 -87.196,101.488 -63.234,0 -87.199,-45.457 -87.199,-101.488" /><path
             id="path128"
             style="fill:#facb99;fill-opacity:1;fill-rule:nonzero;stroke:none"
             d="m 379.863,298.316 c 0,-26.168 4.246,-48.933 17.774,-70.406 14.863,-23.644 38.125,-40.168 56.043,-40.168 17.922,0 39.074,16.153 52.941,33.762 17.781,22.586 20.906,45.937 20.906,76.812 0,55.024 -23.894,87.571 -73.847,87.571 -49.93,0 -73.817,-32.547 -73.817,-87.571" /><path
             id="path130"
             style="fill:#3d2415;fill-opacity:1;fill-rule:nonzero;stroke:none"
             d="m 436.816,399.52 c 0,0 -7.519,-33.821 -61.914,-88.813 0,0 -15.988,31.859 23.465,78.203 23.418,27.52 38.449,10.61 38.449,10.61" /><path
             id="path132"
             style="fill:#3d2415;fill-opacity:1;fill-rule:nonzero;stroke:none"
             d="m 429.395,393.355 c 0,0 36.785,-67.792 103.574,-63.492 0,0 2.097,39.961 -59.289,69.867 -36.446,17.758 -44.285,-6.375 -44.285,-6.375" /><path
             id="path134"
             style="fill:#3d2415;fill-opacity:1;fill-rule:nonzero;stroke:none"
             d="m 417.371,385.887 c 0,0 -8.035,-61.02 72.453,-56.239 0,0 -18.859,74.61 -72.453,56.239" /><path
             id="path136"
             style="fill:#000000;fill-opacity:1;fill-rule:nonzero;stroke:none"
             d="m 495.078,290.422 c 0,-3 -2.433,-5.442 -5.441,-5.442 -2.996,0 -5.438,2.442 -5.438,5.442 0,3.004 2.442,5.445 5.438,5.445 3.008,0 5.441,-2.441 5.441,-5.445" /><path
             id="path138"
             style="fill:#000000;fill-opacity:1;fill-rule:nonzero;stroke:none"
             d="m 422.813,290.422 c 0,-3 -2.434,-5.442 -5.442,-5.442 -2.996,0 -5.437,2.442 -5.437,5.442 0,3.004 2.441,5.445 5.437,5.445 3.008,0 5.442,-2.441 5.442,-5.445" /><path
             id="path140"
             style="fill:#ef8073;fill-opacity:1;fill-rule:nonzero;stroke:none"
             d="m 478.105,234.082 c 0,0 0,-13.535 -24.601,-13.535 -24.59,0 -24.59,13.535 -24.59,13.535 h 49.191" /><path
             id="path142"
             style="fill:none;stroke:#f2926c;stroke-width:3.25999999;stroke-linecap:round;stroke-linejoin:round;stroke-miterlimit:10;stroke-dasharray:none;stroke-opacity:1"
             d="m 448.574,258.547 c 0.84,-1.867 3.203,-3.215 6.035,-3.215 2.832,0 5.204,1.348 6.043,3.215" /><path
             id="path144"
             style="fill:#6c297d;fill-opacity:1;fill-rule:nonzero;stroke:none"
             d="m 522.625,307.484 c -6.453,2.661 -16.707,4.18 -24.687,4.18 -7.969,0 -19.375,-1.328 -25.965,-4.297 -9.27,-4.168 -13.528,-4.379 -18.274,-4.379 -4.746,0 -9.011,0.211 -18.269,4.379 -6.602,2.969 -17.989,4.297 -25.969,4.297 -7.988,0 -18.231,-1.519 -24.695,-4.18 -6.446,-2.66 -10.821,-4.496 -10.821,-4.496 v -7.273 c 0,-0.949 2.871,-0.715 3.934,-1.731 2.148,-2.062 4.855,-11.515 8.418,-16.379 5.371,-7.363 16.152,-9.46 25.644,-9.46 9.493,0 19.758,1.171 25.657,6.289 6.543,5.695 9.265,15.203 10.222,18.437 0.938,3.164 5.723,3.582 5.879,3.594 0.156,-0.012 4.953,-0.43 5.879,-3.594 0.949,-3.234 3.684,-12.742 10.227,-18.437 5.886,-5.118 16.152,-6.289 25.652,-6.289 9.492,0 20.273,2.097 25.637,9.46 3.562,4.864 6.269,14.317 8.437,16.379 1.043,1.016 3.914,0.782 3.914,1.731 v 7.273 c 0,0 -4.355,1.836 -10.82,4.496 m -89.246,-32.222 c -5.188,-3.34 -13.379,-4.121 -20.266,-4.121 -7.742,0 -15.508,0.558 -20.918,4.961 -6.015,4.894 -8.711,13.378 -8.711,19.003 0,10.68 13.274,13.321 29.629,13.321 16.379,0 30.371,-5.723 30.371,-14.715 0,-6.203 -2.957,-13.848 -10.105,-18.449 m 81.824,0.84 c -5.418,-4.403 -13.172,-4.961 -20.926,-4.961 -6.867,0 -15.078,0.781 -20.265,4.121 -7.149,4.601 -10.106,12.246 -10.106,18.449 0,8.992 14.004,14.715 30.371,14.715 16.356,0 29.629,-2.641 29.629,-13.321 0,-5.625 -2.687,-14.109 -8.703,-19.003" /></g></g></g></g></svg>