<?xml version="1.0" encoding="UTF-8" standalone="no"?>
<svg
   xmlns:dc="http://purl.org/dc/elements/1.1/"
   xmlns:cc="http://creativecommons.org/ns#"
   xmlns:rdf="http://www.w3.org/1999/02/22-rdf-syntax-ns#"
   xmlns:svg="http://www.w3.org/2000/svg"
   xmlns="http://www.w3.org/2000/svg"
   viewBox="0 0 86.839996 86.839996"
   height="86.839996"
   width="86.839996"
   xml:space="preserve"
   id="svg2"
   version="1.1"><metadata
     id="metadata8"><rdf:RDF><cc:Work
         rdf:about=""><dc:format>image/svg+xml</dc:format><dc:type
           rdf:resource="http://purl.org/dc/dcmitype/StillImage" /></cc:Work></rdf:RDF></metadata><defs
     id="defs6"><clipPath
       id="clipPath26"
       clipPathUnits="userSpaceOnUse"><path
         id="path24"
         d="M 173.18,535.535 C 57.2656,451.328 31.5781,289.098 115.797,173.18 200.012,57.2695 362.25,31.5781 478.148,115.785 c 69.551,50.539 106.926,123.918 106.926,209.883 0,143.266 -116.133,259.418 -259.406,259.418 -57.309,0 -106.121,-15.859 -152.488,-49.551" /></clipPath><clipPath
       id="clipPath36"
       clipPathUnits="userSpaceOnUse"><path
         id="path34"
         d="m 244.43,307.387 c -21.395,0 -38.825,-18.203 -38.825,-40.625 v -76.055 c 0,-22.527 17.602,-40.867 39.133,-40.762 21.524,0.098 39.129,18.625 39.129,41.145 v 75.019 c 0,22.52 -17.605,41.098 -39.129,41.278 -0.109,0 -0.211,0 -0.308,0" /></clipPath><clipPath
       id="clipPath42"
       clipPathUnits="userSpaceOnUse"><path
         id="path40"
         d="m 205.609,149.832 h 78.2578 V 307.383 H 205.609 Z" /></clipPath><linearGradient
       id="linearGradient48"
       gradientTransform="matrix(0,596.391,336.451,0,5294.89,9034.7)"
       gradientUnits="userSpaceOnUse"
       y2="0"
       x2="0.89525199"
       y1="0"
       x1="0"><stop
         id="stop44"
         offset="0"
         style="stop-opacity:1;stop-color:#fac39a" /><stop
         id="stop46"
         offset="1"
         style="stop-opacity:1;stop-color:#f5a46f" /></linearGradient><clipPath
       id="clipPath58"
       clipPathUnits="userSpaceOnUse"><path
         id="path56"
         d="m 312.348,334.695 v -48.207 c 0,0 12.843,5.5 12.843,18.61 v 30.379 c 0,0 -0.527,5.769 -6.035,5.769 -4.816,0 -6.808,-6.551 -6.808,-6.551" /></clipPath><clipPath
       id="clipPath64"
       clipPathUnits="userSpaceOnUse"><path
         id="path62"
         d="m 312.348,286.484 h 12.8398 v 54.7578 H 312.348 Z" /></clipPath><linearGradient
       id="linearGradient70"
       gradientTransform="matrix(48.6292,0,0,-247.418,5719.23,9779.34)"
       gradientUnits="userSpaceOnUse"
       y2="0"
       x2="0.89525199"
       y1="0"
       x1="0"><stop
         id="stop66"
         offset="0"
         style="stop-opacity:1;stop-color:#fac39a" /><stop
         id="stop68"
         offset="1"
         style="stop-opacity:1;stop-color:#f5a46f" /></linearGradient><clipPath
       id="clipPath80"
       clipPathUnits="userSpaceOnUse"><path
         id="path78"
         d="m 166.098,335.477 v -30.379 c 0,-13.11 12.828,-18.61 12.828,-18.61 v 48.207 c 0,0 -1.977,6.551 -6.809,6.551 -5.5,0 -6.019,-5.769 -6.019,-5.769" /></clipPath><clipPath
       id="clipPath86"
       clipPathUnits="userSpaceOnUse"><path
         id="path84"
         d="m 166.098,286.484 h 12.832 v 54.7578 h -12.832 z" /></clipPath><linearGradient
       id="linearGradient92"
       gradientTransform="matrix(48.6292,0,0,-247.418,5165.22,9779.34)"
       gradientUnits="userSpaceOnUse"
       y2="0"
       x2="0.89525199"
       y1="0"
       x1="0"><stop
         id="stop88"
         offset="0"
         style="stop-opacity:1;stop-color:#fac39a" /><stop
         id="stop90"
         offset="1"
         style="stop-opacity:1;stop-color:#f5a46f" /></linearGradient><clipPath
       id="clipPath102"
       clipPathUnits="userSpaceOnUse"><path
         id="path100"
         d="M 173.18,535.535 C 57.2656,451.328 31.5781,289.098 115.797,173.18 200.012,57.2695 362.25,31.5781 478.148,115.785 c 69.551,50.539 106.926,123.918 106.926,209.883 0,143.266 -116.133,259.418 -259.406,259.418 -57.309,0 -106.121,-15.859 -152.488,-49.551" /></clipPath></defs><g
     transform="matrix(1.3333333,0,0,-1.3333333,0,86.84)"
     id="g10"><g
       transform="scale(0.1)"
       id="g12"><path
         id="path14"
         style="fill:#b6b5b7;fill-opacity:1;fill-rule:nonzero;stroke:none"
         d="M 325.699,325.699 409.977,11.1758 C 236.27,-35.375 57.7188,67.7188 11.1758,241.422 c -46.5469,173.703 56.543,352.254 230.2382,398.797 27.805,7.453 55.516,11.097 84.285,11.097 V 325.699" /><path
         id="path16"
         style="fill:#6a247e;fill-opacity:1;fill-rule:nonzero;stroke:none"
         d="m 325.699,325.699 v 325.617 c 179.832,0 325.614,-145.789 325.614,-325.617 0,-151.066 -95.43,-275.4295 -241.336,-314.5232 L 325.699,325.699" /><path
         id="path18"
         style="fill:#ffffff;fill-opacity:1;fill-rule:nonzero;stroke:none"
         d="m 325.668,585.086 c -57.313,0 -106.121,-15.859 -152.48,-49.539 C 57.2773,451.328 31.5781,289.098 115.797,173.188 200.004,57.2813 362.242,31.5781 478.148,115.797 c 69.551,50.527 106.934,123.906 106.934,209.871 0,143.266 -116.141,259.418 -259.414,259.418" /><g
         id="g20"><g
           clip-path="url(#clipPath26)"
           id="g22"><path
             id="path28"
             style="fill:#ef8028;fill-opacity:1;fill-rule:nonzero;stroke:none"
             d="m 399.652,67.1055 -0.769,16.0234 c 0,64.7071 -63.781,117.6371 -143.59,117.6371 h -27.18 c -79.808,0 -150.3669,-52.93 -150.3669,-117.6371 L 76.9727,67.1055 H 399.652" /></g></g><g
         id="g30"><g
           clip-path="url(#clipPath36)"
           id="g32"><g
             clip-path="url(#clipPath42)"
             id="g38"><path
               id="path50"
               style="fill:url(#linearGradient48);fill-opacity:1;fill-rule:nonzero;stroke:none"
               d="m 242,149 v 1 h -6 v 1 h -4 v 1 h -3 v 1 h -2 v 1 h -1 v 1 h -2 v 1 h -2 v 1 h -1 v 1 h -1 v 1 h -1 v 1 h -1 v 1 h -2 v 2 h -1 v 1 h -1 v 1 h -1 v 2 h -1 v 1 h -1 v 2 h -1 v 2 h -1 v 2 h -1 v 3 h -1 v 3 h -1 v 5 h -1 v 87 h 1 v 5 h 1 v 4 h 1 v 3 h 1 v 2 h 1 v 2 h 1 v 1 h 1 v 2 h 1 v 1 h 1 v 1 h 1 v 2 h 1 v 1 h 1 v 1 h 1 v 1 h 1 v 1 h 2 v 1 h 1 v 1 h 1 v 1 h 2 v 1 h 2 v 1 h 2 v 1 h 2 v 1 h 3 v 1 h 5 v 1 h 11 v -1 h 5 v -1 h 3 v -1 h 2 v -1 h 2 v -1 h 2 v -1 h 2 v -1 h 1 v -1 h 1 v -1 h 2 v -1 h 1 v -1 h 1 v -1 h 1 v -1 h 1 v -1 h 1 v -2 h 1 v -1 h 1 v -1 h 1 v -2 h 1 v -2 h 1 v -2 h 1 v -2 h 1 v -4 h 1 v -3 h 1 v -93 h -1 v -3 h -1 v -4 h -1 v -2 h -1 v -2 h -1 v -2 h -1 v -2 h -1 v -1 h -1 v -1 h -1 v -1 h -1 v -2 h -1 v -1 h -1 v -1 h -2 v -1 h -1 v -1 h -1 v -1 h -1 v -1 h -2 v -1 h -2 v -1 h -1 v -1 h -2 v -1 h -3 v -1 h -3 v -1 h -6 v -1" /></g></g></g><g
         id="g52"><g
           clip-path="url(#clipPath58)"
           id="g54"><g
             clip-path="url(#clipPath64)"
             id="g60"><path
               id="path72"
               style="fill:url(#linearGradient70);fill-opacity:1;fill-rule:nonzero;stroke:none"
               d="m 312,286 v 51 h 1 v 2 h 1 v 1 h 1 v 1 h 2 v 1 h 4 v -1 h 2 v -1 h 1 v -1 h 1 v -2 h 1 v -35 h -1 v -3 h -1 v -3 h -1 v -1 h -1 v -2 h -1 v -1 h -1 v -1 h -1 v -1 h -1 v -1 h -1 v -1 h -2 v -1 h -1 v -1" /></g></g></g><g
         id="g74"><g
           clip-path="url(#clipPath80)"
           id="g76"><g
             clip-path="url(#clipPath86)"
             id="g82"><path
               id="path94"
               style="fill:url(#linearGradient92);fill-opacity:1;fill-rule:nonzero;stroke:none"
               d="m 177,286 v 1 h -1 v 1 h -1 v 1 h -2 v 1 h -1 v 1 h -1 v 1 h -1 v 2 h -1 v 1 h -1 v 1 h -1 v 4 h -1 v 39 h 1 v 1 h 1 v 1 h 2 v 1 h 4 v -1 h 2 v -1 h 1 v -1 h 1 v -2 h 1 v -51" /></g></g></g><g
         id="g96"><g
           clip-path="url(#clipPath102)"
           id="g98"><path
             id="path104"
             style="fill:#f8c098;fill-opacity:1;fill-rule:nonzero;stroke:none"
             d="m 280.746,432.227 c -10.848,0 -23.074,0.25 -29.609,0.394 v 0.121 c 0,0 -0.989,-0.019 -2.68,-0.047 -1.277,0.028 -2.027,0.047 -2.027,0.047 v -0.086 c -7.981,-0.152 -24.391,-0.429 -35.903,-0.429 -30.91,0 -35.629,-25.942 -35.629,-25.942 0,0 -2.968,-116.594 -2.968,-134.414 0,-35.312 55.64,-64.961 55.64,-64.961 h 36.141 c 0,0 55.641,29.649 55.641,64.961 0,17.82 -2.969,134.414 -2.969,134.414 0,0 -4.719,25.942 -35.637,25.942" /><path
             id="path106"
             style="fill:#ffffff;fill-opacity:1;fill-rule:nonzero;stroke:none"
             d="m 215.055,264.379 h 60.117 c 0,0 -1.567,-17.207 -30.957,-17.207 -29.395,0 -29.16,17.207 -29.16,17.207" /><path
             id="path108"
             style="fill:#82582f;fill-opacity:1;fill-rule:nonzero;stroke:none"
             d="m 289.23,405.602 c 0,0 24.329,-1.579 24.329,-16.778 0,-15.203 -0.606,-33.875 -0.606,-53.691 5.039,5.019 12.031,2.527 12.031,2.527 0,0 6.446,61.672 1.778,73.434 -5.086,12.777 -11.426,17.808 -11.426,17.808 0,0 0,21.489 -32.637,32.489 0,0 -16.277,4.722 -48.594,4.722 -32.32,0 -54.476,-17.289 -58.277,-30.922 0,0 -15.629,-10.308 -10.609,-51.519 0,0 0.269,-26.731 0.269,-46.641 0,0 6.192,3.719 12.981,-3.082 0,14.153 -1.883,69.035 5.539,69.035 0,0 39.523,-13.004 105.222,2.618" /><path
             id="path110"
             style="fill:none;stroke:#f2926c;stroke-width:3.92000008;stroke-linecap:round;stroke-linejoin:round;stroke-miterlimit:10;stroke-dasharray:none;stroke-opacity:1"
             d="m 231.918,289.633 c 2.137,-3.856 5.465,-8.094 13.855,-8.094 8.399,0 12.555,5.223 13.844,9.383" /><path
             id="path112"
             style="fill:#000000;fill-opacity:1;fill-rule:nonzero;stroke:none"
             d="m 217.91,335.875 c 0,-3.102 -2.519,-5.621 -5.621,-5.621 -3.098,0 -5.617,2.519 -5.617,5.621 0,3.098 2.519,5.617 5.617,5.617 3.102,0 5.621,-2.519 5.621,-5.617" /><path
             id="path114"
             style="fill:#000000;fill-opacity:1;fill-rule:nonzero;stroke:none"
             d="m 275.016,335.875 c 0,-3.102 2.519,-5.621 5.621,-5.621 3.093,0 5.617,2.519 5.617,5.621 0,3.098 -2.524,5.617 -5.617,5.617 -3.102,0 -5.621,-2.519 -5.621,-5.617" /><path
             id="path116"
             style="fill:#3d2415;fill-opacity:1;fill-rule:nonzero;stroke:none"
             d="m 371.461,361 c 0,0 -9.445,-45.801 -7.648,-73.484 3.253,-50.383 11.503,-167.442 -17.598,-167.442 0,0 37.375,-37.3943 64.082,-10.683 26.711,26.699 9.191,111.882 9.191,111.882 L 410.297,281.801 371.461,361" /><path
             id="path118"
             style="fill:#3d2415;fill-opacity:1;fill-rule:nonzero;stroke:none"
             d="m 537.73,333.664 c 0,0 6.133,-6.691 4.071,-37.312 -3.348,-49.793 -11.582,-176.278 21.906,-176.278 0,0 -44.816,-37.3943 -76.828,-10.695 -32.031,26.719 -11.004,111.887 -11.004,111.887 l 11.004,60.523 50.851,51.875" /><path
             id="path120"
             style="fill:#6a247e;fill-opacity:1;fill-rule:nonzero;stroke:none"
             d="m 574.332,67.1055 h -245.43 c 0,0 3.797,74.6175 10.235,81.0545 6.433,6.434 6.836,27.508 111.023,27.508 104.199,0 108.399,-21.973 113.938,-27.508 5.527,-5.527 10.234,-81.0545 10.234,-81.0545" /><path
             id="path122"
             style="fill:#efb986;fill-opacity:1;fill-rule:nonzero;stroke:none"
             d="m 482.152,150.609 -29.285,-65.9449 -30.07,65.9449 2.004,110.657 h 55.359 l 1.992,-110.657" /><path
             id="path124"
             style="fill:#3d2415;fill-opacity:1;fill-rule:nonzero;stroke:none"
             d="m 367.406,324.863 c 0,-56.031 39.035,-101.48 87.199,-101.48 48.165,0 87.196,45.449 87.196,101.48 0,56.032 -23.973,101.492 -87.196,101.492 -63.234,0 -87.199,-45.46 -87.199,-101.492" /><path
             id="path126"
             style="fill:#facb99;fill-opacity:1;fill-rule:nonzero;stroke:none"
             d="m 379.859,298.316 c 0,-26.171 4.246,-48.925 17.762,-70.41 14.883,-23.644 38.137,-40.156 56.055,-40.156 17.922,0 39.074,16.141 52.941,33.758 17.781,22.578 20.906,45.93 20.906,76.808 0,55.02 -23.894,87.571 -73.847,87.571 -49.93,0 -73.817,-32.551 -73.817,-87.571" /><path
             id="path128"
             style="fill:#3d2415;fill-opacity:1;fill-rule:nonzero;stroke:none"
             d="m 436.813,399.516 c 0,0 -7.52,-33.817 -61.915,-88.809 0,0 -15.988,31.859 23.465,78.199 23.418,27.524 38.45,10.61 38.45,10.61" /><path
             id="path130"
             style="fill:#3d2415;fill-opacity:1;fill-rule:nonzero;stroke:none"
             d="m 429.391,393.348 c 0,0 36.785,-67.785 103.574,-63.489 0,0 2.098,39.961 -59.289,69.871 -36.453,17.758 -44.285,-6.382 -44.285,-6.382" /><path
             id="path132"
             style="fill:#3d2415;fill-opacity:1;fill-rule:nonzero;stroke:none"
             d="m 417.367,385.887 c 0,0 -8.035,-61.02 72.453,-56.239 0,0 -18.859,74.61 -72.453,56.239" /><path
             id="path134"
             style="fill:#000000;fill-opacity:1;fill-rule:nonzero;stroke:none"
             d="m 495.074,290.426 c 0,-3 -2.433,-5.442 -5.441,-5.442 -2.996,0 -5.438,2.442 -5.438,5.442 0,2.996 2.442,5.437 5.438,5.437 3.008,0 5.441,-2.441 5.441,-5.437" /><path
             id="path136"
             style="fill:#000000;fill-opacity:1;fill-rule:nonzero;stroke:none"
             d="m 422.809,290.426 c 0,-3 -2.434,-5.442 -5.442,-5.442 -2.996,0 -5.437,2.442 -5.437,5.442 0,2.996 2.441,5.437 5.437,5.437 3.008,0 5.442,-2.441 5.442,-5.437" /><path
             id="path138"
             style="fill:#ef8073;fill-opacity:1;fill-rule:nonzero;stroke:none"
             d="m 478.102,234.086 c 0,0 0,-13.547 -24.602,-13.547 -24.59,0 -24.59,13.547 -24.59,13.547 h 49.192" /><path
             id="path140"
             style="fill:none;stroke:#f2926c;stroke-width:3.25999999;stroke-linecap:round;stroke-linejoin:round;stroke-miterlimit:10;stroke-dasharray:none;stroke-opacity:1"
             d="m 448.559,258.539 c 0.839,-1.855 3.214,-3.203 6.046,-3.203 2.833,0 5.196,1.348 6.036,3.203" /><path
             id="path142"
             style="fill:#6c297d;fill-opacity:1;fill-rule:nonzero;stroke:none"
             d="m 522.621,307.484 c -6.465,2.661 -16.707,4.18 -24.687,4.18 -7.977,0 -19.375,-1.328 -25.977,-4.301 -9.258,-4.172 -13.516,-4.379 -18.269,-4.379 -4.739,0 -9.004,0.207 -18.262,4.379 -6.602,2.973 -18,4.301 -25.977,4.301 -7.98,0 -18.234,-1.519 -24.687,-4.18 -6.465,-2.66 -10.821,-4.5 -10.821,-4.5 v -7.265 c 0,-0.957 2.872,-0.723 3.926,-1.731 2.156,-2.058 4.863,-11.523 8.426,-16.386 5.371,-7.352 16.145,-9.454 25.645,-9.454 9.492,0 19.757,1.165 25.656,6.29 6.531,5.683 9.265,15.195 10.215,18.429 0.945,3.164 5.73,3.582 5.879,3.594 0.164,-0.012 4.949,-0.43 5.886,-3.594 0.949,-3.234 3.672,-12.746 10.227,-18.429 5.887,-5.125 16.152,-6.29 25.652,-6.29 9.485,0 20.266,2.102 25.637,9.454 3.562,4.863 6.269,14.328 8.426,16.386 1.054,1.008 3.925,0.774 3.925,1.731 v 7.265 c 0,0 -4.363,1.84 -10.82,4.5 M 433.375,275.27 c -5.187,-3.34 -13.379,-4.122 -20.266,-4.122 -7.754,0 -15.507,0.547 -20.918,4.961 -6.023,4.883 -8.711,13.379 -8.711,18.993 0,10.683 13.274,13.32 29.629,13.32 16.368,0 30.371,-5.719 30.371,-14.715 0,-6.203 -2.957,-13.84 -10.105,-18.437 m 81.824,0.839 c -5.418,-4.414 -13.183,-4.961 -20.926,-4.961 -6.875,0 -15.078,0.782 -20.265,4.122 -7.149,4.597 -10.106,12.234 -10.106,18.437 0,8.996 14.004,14.715 30.371,14.715 16.356,0 29.629,-2.637 29.629,-13.32 0,-5.614 -2.695,-14.11 -8.703,-18.993" /><path
             id="path144"
             style="fill:#000000;fill-opacity:1;fill-rule:nonzero;stroke:none"
             d="m 319.059,353.262 c 0,0 -32.289,11.758 -65.801,-0.657 l -0.449,-0.785 c -0.082,0.02 -0.852,0.211 -0.852,0.211 -5.371,0.899 -8.758,0.383 -11.172,-0.035 -0.34,-0.058 -0.648,-0.117 -0.906,-0.176 l -0.461,0.785 c -33.5,12.415 -65.789,0.657 -65.789,0.657 l -0.305,-8.242 c 0,0 3.153,-1.11 3.703,-5.543 0.543,-4.477 1.192,-16.176 9.457,-22.11 7.934,-5.687 24.606,-4.41 34.969,-1.09 10.371,3.332 15.676,13.243 17.301,19.063 1.004,3.601 1.883,5.672 3.082,6.789 0.312,0.437 0.867,0.543 1.43,0.687 1.097,0.313 2.441,0.344 3.543,0.344 2.336,0 3.519,-0.441 4.035,-1.031 1.203,-1.117 2.082,-3.188 3.082,-6.789 1.633,-5.82 6.929,-15.731 17.301,-19.063 10.371,-3.32 27.039,-4.597 34.968,1.09 8.274,5.934 8.918,17.633 9.465,22.11 0.547,4.433 3.699,5.543 3.699,5.543 z m -95.332,-32.883 c -10.118,-6.066 -30.614,-5.492 -36.75,0.758 -7,7.133 -7.629,24.152 -2.528,28.222 0,0 5.828,4.75 23.875,5.231 16.27,0.437 24.121,-3.102 26.563,-8.551 2.949,-6.562 -1.782,-20.019 -11.16,-25.66 m 81.98,0.758 c -6.141,-6.25 -26.629,-6.824 -36.754,-0.758 -9.379,5.641 -14.113,19.098 -11.156,25.66 2.437,5.449 10.289,8.988 26.558,8.551 18.051,-0.481 23.883,-5.231 23.883,-5.231 5.098,-4.07 4.461,-21.089 -2.531,-28.222" /></g></g></g></g></svg>