<?xml version="1.0" encoding="utf-8"?>
<!-- Generator: Adobe Illustrator 22.0.1, SVG Export Plug-In . SVG Version: 6.00 Build 0)  -->
<svg version="1.1" id="Слой_1" xmlns="http://www.w3.org/2000/svg" xmlns:xlink="http://www.w3.org/1999/xlink" x="0px" y="0px"
	 viewBox="0 0 39.8 71.2" style="enable-background:new 0 0 39.8 71.2;" xml:space="preserve">
<style type="text/css">
	.st0{fill:#AEB0B2;}
	.st1{fill:#FFFFFF;}
	.st2{fill:#8B5D9E;}
	.st3{fill:#6B247E;}
	.st4{fill:none;stroke:#6B247E;stroke-width:5.489;stroke-miterlimit:10;}
	.st5{fill:none;stroke:#B296C0;stroke-width:5.489;stroke-miterlimit:10;}
	.st6{fill:none;stroke:#8B5D9E;stroke-width:5.489;stroke-miterlimit:10;}
	.st7{fill:none;stroke:#D1C3DC;stroke-width:5.489;stroke-miterlimit:10;}
</style>
<path class="st0" d="M27.8,8.7c0,0-4.3,8.7-12.1,8.7c-7.8,0-12.1-8.7-12.1-8.7S7.8,0,15.7,0C23.5,0,27.8,8.7,27.8,8.7"/>
<path class="st1" d="M27.8,8.7c0,0-4.3,7.5-12.1,7.5c-7.8,0-12.1-7.5-12.1-7.5s4.3-7.5,12.1-7.5C23.5,1.2,27.8,8.7,27.8,8.7"/>
<path class="st2" d="M23.2,8.7c0,4.2-3.4,7.5-7.5,7.5c-4.2,0-7.5-3.4-7.5-7.5c0-4.2,3.4-7.5,7.5-7.5C19.8,1.2,23.2,4.6,23.2,8.7"/>
<path class="st3" d="M20,8.7c0,2.4-1.9,4.3-4.3,4.3s-4.3-1.9-4.3-4.3c0-2.4,1.9-4.3,4.3-4.3S20,6.3,20,8.7"/>
<path class="st1" d="M22.4,4.9c0,1.6-1.3,2.8-2.8,2.8c-1.6,0-2.8-1.3-2.8-2.8c0-1.6,1.3-2.8,2.8-2.8C21.1,2.1,22.4,3.4,22.4,4.9"/>
<line class="st4" x1="35.3" y1="71.2" x2="35.3" y2="17.7"/>
<line class="st5" x1="13.6" y1="71.2" x2="13.6" y2="49.9"/>
<line class="st6" x1="24.4" y1="71.2" x2="24.4" y2="43.1"/>
<line class="st7" x1="2.7" y1="71.2" x2="2.7" y2="54.5"/>
<g>
	<path class="st3" d="M3.1,52.8c-1.3,0-2.2-1.1-2.2-2.8c0-1.8,0.9-3,2.4-3c1.1,0,1.7,0.5,1.7,0.5l-0.5,0.7c0,0-0.5-0.4-1.1-0.4
		c-1,0-1.4,0.7-1.5,1.6c0.3-0.4,0.9-0.7,1.3-0.7c1.1,0,1.8,0.8,1.8,1.9C5.2,52,4.3,52.8,3.1,52.8z M3.2,49.9c-0.6,0-1,0.4-1,1
		c0,0.6,0.4,1,1,1c0.6,0,0.9-0.4,0.9-1C4.1,50.3,3.7,49.9,3.2,49.9z"/>
</g>
<g>
	<path class="st3" d="M32.3,16v-4.1l-1.2,0.8l-0.5-0.8l2-1.3h0.9V16H32.3z"/>
	<path class="st3" d="M37.7,16h-1.2l2.2-4.5h-2.9v-1h4.1v0.9L37.7,16z"/>
</g>
<path class="st0" d="M5.8,50.3c0,0,0.5-0.2,1.3-0.6c0.8-0.4,1.9-1.1,3.2-1.9c0.6-0.4,1.3-0.9,2-1.5c0.7-0.5,1.4-1.2,2.1-1.8
	c0.7-0.7,1.4-1.4,2-2.1c0.3-0.4,0.6-0.8,1-1.1c0.3-0.4,0.6-0.8,0.9-1.2c0.6-0.8,1.1-1.6,1.6-2.5c0.2-0.4,0.5-0.8,0.7-1.3
	c0.1-0.2,0.2-0.4,0.3-0.6c0.1-0.2,0.2-0.4,0.3-0.6c0.1-0.2,0.2-0.4,0.3-0.6c0.1-0.2,0.2-0.4,0.2-0.6c0.2-0.4,0.3-0.8,0.5-1.2
	c0.1-0.4,0.3-0.8,0.4-1.2c0.1-0.4,0.2-0.7,0.3-1.1c0.1-0.3,0.2-0.7,0.2-1c0.1-0.3,0.1-0.6,0.2-0.9c0.1-0.6,0.2-1.1,0.2-1.5
	c0.1-0.8,0.2-1.3,0.2-1.3l5.5,1c0,0-0.2,0.5-0.4,1.5c-0.1,0.5-0.4,1-0.6,1.7c-0.1,0.3-0.2,0.7-0.4,1c-0.1,0.4-0.3,0.7-0.5,1.1
	c-0.2,0.4-0.4,0.8-0.6,1.2c-0.2,0.4-0.4,0.8-0.7,1.2c-0.2,0.4-0.5,0.8-0.7,1.3c-0.1,0.2-0.3,0.4-0.4,0.6c-0.1,0.2-0.3,0.4-0.4,0.6
	c-0.1,0.2-0.3,0.4-0.4,0.6c-0.2,0.2-0.3,0.4-0.5,0.6c-0.3,0.4-0.7,0.8-1,1.3c-0.7,0.8-1.4,1.6-2.2,2.4c-0.4,0.4-0.8,0.7-1.2,1.1
	c-0.4,0.3-0.8,0.7-1.2,1c-0.8,0.7-1.7,1.3-2.5,1.8c-0.8,0.6-1.7,1.1-2.5,1.5c-0.8,0.4-1.6,0.8-2.3,1.2c-1.4,0.7-2.7,1.1-3.5,1.4
	C6.3,50.1,5.8,50.3,5.8,50.3"/>
<polygon class="st0" points="31.4,28 27.1,18.7 21.1,27.1 "/>
</svg>
