<?xml version="1.0" encoding="utf-8"?>
<!-- Generator: Adobe Illustrator 22.0.1, SVG Export Plug-In . SVG Version: 6.00 Build 0)  -->
<svg version="1.1" id="Слой_1" xmlns="http://www.w3.org/2000/svg" xmlns:xlink="http://www.w3.org/1999/xlink" x="0px" y="0px"
	 viewBox="0 0 42.5 20.4" style="enable-background:new 0 0 42.5 20.4;" xml:space="preserve">
<style type="text/css">
	.st0{fill:#6B247E;}
</style>
<path class="st0" d="M40.6,5.4c-0.5,0-0.9,0.5-0.9,1.4c0,0.9,0.3,1.4,0.8,1.4c0.8,0,0.9-0.8,0.9-1.4C41.5,5.8,41.1,5.4,40.6,5.4
	 M40.6,9c-1.2,0-1.9-0.9-1.9-2.2c0-1.3,0.7-2.2,1.9-2.2c1.2,0,1.9,0.9,1.9,2.2C42.5,8.1,41.8,9,40.6,9 M35.6,9.5l-0.9-0.6l5.7-8.8
	l0.9,0.6L35.6,9.5z M35.5,1.3c-0.5,0-0.9,0.5-0.9,1.4c0,0.9,0.4,1.4,0.9,1.4c0.8,0,0.9-0.8,0.9-1.4C36.3,1.8,36,1.3,35.5,1.3
	 M35.5,5c-1.2,0-1.9-0.9-1.9-2.2c0-1.3,0.7-2.2,1.9-2.2c1.2,0,1.9,0.9,1.9,2.2C37.4,4.1,36.7,5,35.5,5"/>
<path class="st0" d="M7.1,3.4c-2,0-3.3,1.5-3.3,3.6c0,2.1,1.4,3.5,3.3,3.5c2.1,0,3.6-1.5,3.6-3.5C10.6,4.8,9.1,3.4,7.1,3.4
	 M6.5,20.4c-4,0-5.9-1.8-6-1.9l1.7-2.6c0.2,0.1,1.8,1.3,4,1.3c3.6,0,5-2.4,5.2-5.6c-0.9,1.5-3,2.3-4.8,2.3C2.7,13.9,0,11.1,0,7.2
	C0,3,2.9,0,7.3,0C12,0,15,3.8,15,9.8C15,16.2,11.8,20.4,6.5,20.4"/>
<path class="st0" d="M24.8,3.3c-2.4,0-4.1,2.4-4.1,6.9c0,4.6,1.6,6.8,4,6.8c2.5,0,4.1-2.2,4.1-6.8C28.8,5.6,27.2,3.3,24.8,3.3
	 M24.7,20.4c-5,0-8-4-8-10.2c0-6.1,3.1-10.1,8-10.1c5,0,8.1,4.1,8.1,10.1C32.9,16.4,29.8,20.4,24.7,20.4"/>
</svg>
