<?xml version="1.0" encoding="utf-8"?>
<!-- Generator: Adobe Illustrator 22.0.1, SVG Export Plug-In . SVG Version: 6.00 Build 0)  -->
<svg version="1.1" id="Слой_1" xmlns="http://www.w3.org/2000/svg" xmlns:xlink="http://www.w3.org/1999/xlink" x="0px" y="0px"
	 viewBox="0 0 63 73.7" style="enable-background:new 0 0 63 73.7;" xml:space="preserve">
<style type="text/css">
	.st0{fill:#FFFFFF;}
	.st1{fill:#6B247E;}
	.st2{fill:#F2F2F2;}
	.st3{fill:#155FAA;}
</style>
<path class="st0" d="M31.5,31.5l-9.7-30C25.1,0.5,28,0,31.5,0V31.5z"/>
<path class="st1" d="M31.5,31.5V0C48.9,0,63,14.1,63,31.5S48.9,63,31.5,63C14.1,63,0,48.9,0,31.5c0-13.9,8.5-25.7,21.8-30L31.5,31.5
	z"/>
<path class="st2" d="M31.5,7.9c-2.6,0-4.8,0.4-7.3,1.2c-9.9,3.2-16.3,12-16.3,22.5c0,13.1,10.6,23.6,23.6,23.6s23.6-10.6,23.6-23.6
	S44.6,7.9,31.5,7.9"/>
<path class="st3" d="M40.9,62.4c0-5.2-4.4-9.5-9.7-9.3c-4.9,0.2-9.2,4.4-9,9.7c0.2,4.9,4.4,9.2,9.7,9C36.8,71.7,40.9,67.6,40.9,62.4
	 M42.7,61.9v1.2c0,0.1,0,0.1,0,0.2c-0.1,0.6-0.2,1.2-0.3,1.8c-0.3,1.5-1,2.8-1.9,4.1c-0.9,1.2-2.1,2.3-3.4,3
	c-1.2,0.7-2.5,1.2-3.9,1.4c-0.3,0.1-0.7,0.1-1,0.1h-1.2c-0.1,0-0.1,0-0.2,0c-1.2-0.1-2.3-0.3-3.4-0.8c-1.5-0.6-2.8-1.5-3.9-2.7
	c-0.9-0.9-1.6-1.9-2.1-3.1c-0.8-1.7-1.1-3.5-1-5.4c0.1-1.2,0.3-2.3,0.8-3.4c0.6-1.5,1.5-2.8,2.7-3.9c0.9-0.9,1.9-1.6,3.1-2.1
	c1.8-0.8,3.7-1.1,5.7-0.9c1.7,0.2,3.2,0.7,4.7,1.5c1.4,0.8,2.5,1.9,3.4,3.2c1,1.5,1.6,3.1,1.9,4.8C42.6,61.3,42.7,61.6,42.7,61.9"/>
<path class="st0" d="M32,62.6v-0.3c0-2.1,0-4.3,0-6.4c0-0.1,0-0.2,0-0.3c-0.1-0.3-0.4-0.6-0.7-0.5c-0.3,0.1-0.5,0.3-0.5,0.7
	c0,2.6,0,5.2,0,7.7c0,0.1,0,0.1,0,0.2c0.1,0.5,0.5,0.7,0.9,0.4c0.4-0.3,0.9-0.6,1.3-0.9c0.9-0.6,1.9-1.3,2.8-1.9
	c0.4-0.3,0.8-0.5,1.2-0.8c0.1-0.1,0.3-0.3,0.3-0.4c0.1-0.2,0-0.5-0.2-0.6c-0.2-0.2-0.5-0.2-0.7,0c-0.4,0.3-0.8,0.6-1.3,0.9
	c-0.8,0.5-1.6,1.1-2.4,1.7C32.6,62.2,32.3,62.4,32,62.6 M40.9,62.4c0.1,5.1-4,9.3-9,9.5c-5.4,0.2-9.6-4.1-9.7-9
	c-0.2-5.4,4.1-9.5,9-9.7C36.5,53,40.8,57.3,40.9,62.4"/>
<path class="st3" d="M32,62.6c0.3-0.2,0.6-0.4,0.8-0.6c0.8-0.5,1.6-1.1,2.4-1.7c0.4-0.3,0.8-0.6,1.3-0.9c0.2-0.2,0.5-0.1,0.7,0
	c0.2,0.1,0.3,0.4,0.2,0.6c-0.1,0.2-0.2,0.3-0.3,0.4c-0.4,0.3-0.8,0.5-1.2,0.8C35,62,34,62.7,33.1,63.3c-0.4,0.3-0.9,0.6-1.3,0.9
	c-0.4,0.3-0.8,0.1-0.9-0.4c0-0.1,0-0.1,0-0.2c0-2.6,0-5.2,0-7.7c0-0.4,0.1-0.6,0.5-0.7c0.3-0.1,0.7,0.1,0.7,0.5c0,0.1,0,0.2,0,0.3
	c0,2.1,0,4.3,0,6.4V62.6z"/>
<g>
	<path class="st1" d="M22.6,33.1c-1.6,0-2.3-0.7-2.4-0.8l0.7-1c0.1,0,0.7,0.5,1.6,0.5c1.4,0,2-0.9,2-2.2c-0.4,0.6-1.2,0.9-1.9,0.9
		c-1.5,0-2.6-1.1-2.6-2.6c0-1.7,1.2-2.8,2.9-2.8c1.9,0,3.1,1.5,3.1,3.9C26,31.5,24.7,33.1,22.6,33.1z M22.9,26.4
		c-0.8,0-1.3,0.6-1.3,1.4c0,0.8,0.5,1.4,1.3,1.4c0.8,0,1.4-0.6,1.4-1.4C24.3,26.9,23.7,26.4,22.9,26.4z"/>
	<path class="st1" d="M30.6,33.1c-1.9,0-3.1-1.5-3.1-3.9c0-2.5,1.3-4.2,3.4-4.2c1.6,0,2.3,0.7,2.4,0.8l-0.7,1
		c-0.1,0-0.7-0.5-1.6-0.5c-1.4,0-2,0.9-2,2.2c0.4-0.6,1.2-0.9,1.9-0.9c1.5,0,2.6,1.1,2.6,2.6C33.5,31.9,32.3,33.1,30.6,33.1z
		 M30.7,29c-0.8,0-1.4,0.6-1.4,1.4c0,0.9,0.6,1.4,1.4,1.4c0.8,0,1.3-0.6,1.3-1.4C32,29.5,31.4,29,30.7,29z"/>
	<path class="st1" d="M36.6,29.3c-1.1,0-1.7-0.8-1.7-2.1c0-1.2,0.7-2.1,1.7-2.1s1.8,0.8,1.8,2C38.3,28.4,37.7,29.3,36.6,29.3z
		 M36.6,25.9c-0.5,0-0.8,0.4-0.8,1.3c0,0.9,0.3,1.3,0.8,1.3c0.7,0,0.8-0.7,0.8-1.3C37.4,26.3,37,25.9,36.6,25.9z M36.7,33.4
		l-0.8-0.5l5.3-8.1l0.8,0.5L36.7,33.4z M41.3,33c-1.1,0-1.7-0.8-1.7-2.1c0-1.2,0.7-2.1,1.7-2.1s1.8,0.8,1.8,2
		C43.1,32.2,42.4,33,41.3,33z M41.4,29.7c-0.5,0-0.8,0.4-0.8,1.3c0,0.9,0.3,1.3,0.8,1.3c0.7,0,0.8-0.7,0.8-1.3
		C42.1,30.1,41.8,29.7,41.4,29.7z"/>
</g>
<g>
	<path class="st1" d="M21.3,42.4v-1.7c0.2,0,0.3,0,0.4-0.1s0.1-0.2,0.2-0.4c0.1-0.2,0.1-0.4,0.1-0.5c0-0.2,0.1-0.3,0.1-0.3l0.5-2.1
		h2.3v3.4h0.5v1.7h-0.7v-1H22v1H21.3z M24.2,40.7v-2.9h-1.1l-0.4,1.6c0,0,0,0.1,0,0.2c0,0.1,0,0.2-0.1,0.2s0,0.1-0.1,0.2
		c0,0.1,0,0.2-0.1,0.2c0,0,0,0.1-0.1,0.2c0,0.1-0.1,0.1-0.2,0.2H24.2z"/>
	<path class="st1" d="M28,40.8c0.4,0,0.8-0.1,1.2-0.3l0.3,0.5c-0.1,0.1-0.4,0.2-0.7,0.3c-0.3,0.1-0.6,0.1-0.8,0.1
		c-0.6,0-1.1-0.2-1.4-0.6c-0.3-0.4-0.5-0.9-0.5-1.5s0.2-1.2,0.5-1.6s0.8-0.6,1.3-0.6s1,0.2,1.3,0.5c0.3,0.4,0.5,0.9,0.5,1.5l0,0.3
		h-2.9c0,0.4,0.1,0.7,0.3,1S27.6,40.8,28,40.8z M28.9,38.9c0-0.4-0.1-0.8-0.4-1c-0.2-0.1-0.4-0.2-0.6-0.2s-0.5,0.1-0.7,0.3
		c-0.2,0.2-0.3,0.5-0.4,0.9H28.9z"/>
	<path class="st1" d="M32.1,41.3h-0.7v-3.5H30v-0.6h3.4v0.6h-1.3V41.3z"/>
	<path class="st1" d="M35.6,40.8c0.4,0,0.8-0.1,1.2-0.3l0.3,0.5c-0.1,0.1-0.4,0.2-0.7,0.3c-0.3,0.1-0.6,0.1-0.8,0.1
		c-0.6,0-1.1-0.2-1.4-0.6c-0.3-0.4-0.5-0.9-0.5-1.5s0.2-1.2,0.5-1.6s0.8-0.6,1.3-0.6s1,0.2,1.3,0.5c0.3,0.4,0.5,0.9,0.5,1.5l0,0.3
		h-2.9c0,0.4,0.1,0.7,0.3,1S35.2,40.8,35.6,40.8z M36.5,38.9c0-0.4-0.1-0.8-0.4-1c-0.2-0.1-0.4-0.2-0.6-0.2S35,37.8,34.7,38
		c-0.2,0.2-0.3,0.5-0.4,0.9H36.5z"/>
	<path class="st1" d="M38.1,41.3v-4.1h0.7l0,3l1.9-3h0.7v4.1h-0.7l0-3l-1.9,3H38.1z M41,35.5c0,0.3-0.1,0.6-0.3,0.8
		c-0.2,0.2-0.5,0.3-0.8,0.3c-0.3,0-0.6-0.1-0.8-0.3s-0.3-0.5-0.3-0.8h0.5c0,0.2,0.1,0.3,0.2,0.4c0.1,0.1,0.3,0.1,0.5,0.1
		c0.2,0,0.4,0,0.5-0.1c0.1-0.1,0.2-0.2,0.2-0.4H41z"/>
</g>
</svg>
