<?xml version="1.0" encoding="utf-8"?>
<!-- Generator: Adobe Illustrator 22.0.1, SVG Export Plug-In . SVG Version: 6.00 Build 0)  -->
<svg version="1.1" id="Слой_1" xmlns="http://www.w3.org/2000/svg" xmlns:xlink="http://www.w3.org/1999/xlink" x="0px" y="0px"
	 viewBox="0 0 66.2 48.4" style="enable-background:new 0 0 66.2 48.4;" xml:space="preserve">
<style type="text/css">
	.st0{fill:#D9DBDA;}
	.st1{fill:#F0802B;}
	.st2{fill:#646567;}
	.st3{fill:#FFFFFF;}
	.st4{fill:#838688;}
	.st5{fill:#020203;}
	.st6{fill:#1A191D;}
</style>
<path class="st0" d="M48.6,8.3h-2.1v26.8C28,35.1,24.9,38,24.9,38s-3-2.9-21.5-2.9V8.3H1.4C1,8.3,0.6,8.7,0.6,9.1v32
	C0.6,41.6,1,42,1.4,42h19.3v0c0,0.5,0.4,1,0.9,1h6.6c0.5,0,1-0.4,1-1v0h19.3c0.4,0,0.8-0.4,0.8-0.8v-32C49.4,8.7,49,8.3,48.6,8.3"/>
<path class="st1" d="M48.6,8.3h-2.1v26.6v0.2v4.1H24.9H3.5v-4.1v-0.2V8.3H1.4C1,8.3,0.6,8.7,0.6,9.1v32C0.6,41.6,1,42,1.4,42h19.3v0
	c0,0.5,0.4,1,0.9,1h6.6c0.5,0,1-0.4,1-1v0h19.3c0.4,0,0.8-0.4,0.8-0.8v-32C49.4,8.7,49,8.3,48.6,8.3"/>
<path class="st2" d="M24.9,38.9l-0.1-0.1c0,0-0.8-0.4-3.9-0.7c-2.8-0.3-8.1-0.7-17.5-0.7c-0.2,0-0.3-0.1-0.3-0.3
	c0-0.2,0.1-0.3,0.3-0.3c16.6,0,20.7,1.2,21.5,1.4c0.7-0.3,4.9-1.4,21.6-1.4c0.2,0,0.3,0.1,0.3,0.3c0,0.2-0.1,0.3-0.3,0.3
	c-9.4,0-14.8,0.4-17.6,0.7c-3.1,0.4-3.9,0.7-3.9,0.7L24.9,38.9z"/>
<path class="st2" d="M25,38.4c-0.2,0-0.3-0.1-0.3-0.3V7.9c0-0.2,0.1-0.3,0.3-0.3c0.2,0,0.3,0.1,0.3,0.3v30.2
	C25.3,38.3,25.1,38.4,25,38.4"/>
<path class="st2" d="M27,40.3h-4c-0.5,0-0.8-0.3-1-0.7c-0.1-0.1-0.1-0.1-0.1-0.2v-0.2h0.6c0,0.2,0.2,0.5,0.5,0.5h4
	c0.2,0,0.4-0.2,0.5-0.4v-0.4h0.6v0.3c0,0.1,0,0.1,0,0.2v0c0,0.1,0,0.1,0,0.2C27.9,40,27.5,40.3,27,40.3"/>
<path class="st2" d="M4.1,34.5c7.4,0,13.2,0.5,17.2,1.5c2.1,0.5,3.1,1,3.7,1.3c0.5-0.3,1.6-0.8,3.7-1.3c4-1,9.8-1.5,17.3-1.5V6.1
	c-9.1,0-14.3,0.7-17,1.2c-2.8,0.6-3.6,1.1-3.6,1.1c-0.2,0.2-0.5,0.2-0.7,0c-0.1,0-1-0.6-4-1.2c-2.7-0.5-7.8-1.1-16.6-1.2V34.5z
	 M24.5,38.4L24.5,38.4z M24.9,38.6L24.9,38.6c-0.2,0-0.3-0.1-0.4-0.2c-0.1-0.1-1-0.7-3.8-1.4c-2.8-0.6-8-1.4-17.2-1.4
	c-0.3,0-0.6-0.3-0.6-0.6V5.5c0-0.3,0.3-0.6,0.6-0.6c7.5,0,13.6,0.4,17.7,1.2C23.3,6.6,24.5,7,25,7.3c0.5-0.3,1.6-0.7,3.7-1.1
	c4.1-0.8,10.1-1.2,17.8-1.2c0.3,0,0.6,0.3,0.6,0.6v29.6c0,0.3-0.3,0.6-0.6,0.6c-9.3,0-14.5,0.7-17.3,1.4c-2.9,0.7-3.8,1.3-3.9,1.4
	C25.2,38.6,25.1,38.6,24.9,38.6"/>
<path class="st2" d="M46.5,39.7h-43c-0.3,0-0.6-0.3-0.6-0.6v-4.2c0-0.3,0.3-0.6,0.6-0.6s0.6,0.3,0.6,0.6v3.7h41.9v-3.7
	c0-0.3,0.3-0.6,0.6-0.6c0.3,0,0.6,0.3,0.6,0.6v4.2C47.1,39.5,46.8,39.7,46.5,39.7"/>
<path class="st2" d="M28.3,43.5h-6.6c-0.6,0-1.2-0.4-1.4-1H1.4c-0.8,0-1.4-0.6-1.4-1.4v-32c0-0.8,0.6-1.4,1.4-1.4h2.1
	C3.8,7.7,4,8,4,8.3c0,0.3-0.3,0.6-0.6,0.6H1.4C1.3,8.9,1.2,9,1.2,9.1v32c0,0.1,0.1,0.3,0.2,0.3h19.3c0,0,0,0,0.1,0
	c0.3,0,0.6,0.3,0.6,0.6c0,0.2,0.2,0.4,0.4,0.4h6.6c0.2,0,0.4-0.2,0.4-0.4c0-0.3,0.3-0.6,0.6-0.6c0,0,0,0,0.1,0h19.2
	c0.1,0,0.2-0.1,0.2-0.3v-32c0-0.1-0.1-0.2-0.2-0.2h-2.1c-0.3,0-0.6-0.3-0.6-0.6c0-0.3,0.3-0.6,0.6-0.6h2.1c0.8,0,1.4,0.6,1.4,1.4v32
	c0,0.8-0.6,1.4-1.4,1.4H29.7C29.5,43.1,29,43.5,28.3,43.5"/>
<path class="st3" d="M4.1,34.5c7.4,0,13.2,0.5,17.2,1.5c2.1,0.5,3.1,1,3.7,1.3c0.5-0.3,1.6-0.8,3.7-1.3c4-1,9.8-1.5,17.3-1.5V6.1
	c-9.1,0-14.3,0.7-17,1.2c-2.8,0.6-3.6,1.1-3.6,1.1c-0.2,0.2-0.5,0.2-0.7,0c-0.1,0-1-0.6-4-1.2c-2.7-0.5-7.8-1.1-16.6-1.2V34.5z"/>
<path class="st2" d="M22.2,13c0,0-0.1,0-0.1,0c-2.2-0.5-6.6-1.2-14.3-1.4c-0.3,0-0.6-0.3-0.6-0.6c0-0.3,0.3-0.6,0.6-0.6
	c7.9,0.2,12.3,0.9,14.6,1.4c0.3,0.1,0.5,0.4,0.4,0.7C22.7,12.8,22.5,13,22.2,13"/>
<path class="st2" d="M22.2,16.2c0,0-0.1,0-0.1,0c-2.2-0.5-6.6-1.2-14.3-1.4c-0.3,0-0.6-0.3-0.6-0.6c0-0.3,0.3-0.6,0.6-0.6
	c7.9,0.2,12.3,0.9,14.6,1.4c0.3,0.1,0.5,0.4,0.4,0.7C22.7,16,22.5,16.2,22.2,16.2"/>
<path class="st2" d="M22.2,19.4c0,0-0.1,0-0.1,0c-2.2-0.5-6.6-1.2-14.3-1.4c-0.3,0-0.6-0.3-0.6-0.6c0-0.3,0.3-0.6,0.6-0.6
	c7.9,0.2,12.3,0.9,14.6,1.4c0.3,0.1,0.5,0.4,0.4,0.7C22.7,19.2,22.5,19.4,22.2,19.4"/>
<path class="st2" d="M22.2,22.5c0,0-0.1,0-0.1,0c-2.2-0.5-6.6-1.2-14.3-1.4c-0.3,0-0.6-0.3-0.6-0.6c0-0.3,0.3-0.6,0.6-0.6
	c7.9,0.2,12.3,0.9,14.6,1.4c0.3,0.1,0.5,0.4,0.4,0.7C22.7,22.4,22.5,22.5,22.2,22.5"/>
<path class="st2" d="M22.2,25.7c0,0-0.1,0-0.1,0c-2.2-0.5-6.6-1.2-14.3-1.4c-0.3,0-0.6-0.3-0.6-0.6c0-0.3,0.3-0.6,0.6-0.6
	c7.9,0.2,12.3,0.9,14.6,1.4c0.3,0.1,0.5,0.4,0.4,0.7C22.7,25.5,22.5,25.7,22.2,25.7"/>
<path class="st2" d="M22.2,28.9c0,0-0.1,0-0.1,0c-2.2-0.5-6.6-1.2-14.3-1.4c-0.3,0-0.6-0.3-0.6-0.6c0-0.3,0.3-0.6,0.6-0.6
	c7.9,0.2,12.3,0.9,14.6,1.4c0.3,0.1,0.5,0.4,0.4,0.7C22.7,28.7,22.5,28.9,22.2,28.9"/>
<path class="st2" d="M22.2,32c0,0-0.1,0-0.1,0c-2.2-0.5-6.6-1.2-14.3-1.4c-0.3,0-0.6-0.3-0.6-0.6c0-0.3,0.3-0.6,0.6-0.6
	c7.9,0.2,12.3,0.9,14.6,1.4c0.3,0.1,0.5,0.4,0.4,0.7C22.7,31.9,22.5,32,22.2,32"/>
<path class="st2" d="M28,13c-0.3,0-0.5-0.2-0.6-0.4c-0.1-0.3,0.1-0.6,0.4-0.7c2.3-0.6,6.7-1.3,14.6-1.4c0.3,0,0.6,0.2,0.6,0.6
	c0,0.3-0.2,0.6-0.6,0.6c-7.8,0.2-12.1,0.9-14.3,1.4C28.1,13,28.1,13,28,13"/>
<path class="st2" d="M28,16.2c-0.3,0-0.5-0.2-0.6-0.4c-0.1-0.3,0.1-0.6,0.4-0.7c2.3-0.6,6.7-1.3,14.6-1.4c0.3,0,0.6,0.2,0.6,0.6
	c0,0.3-0.2,0.6-0.6,0.6c-7.8,0.2-12.1,0.9-14.3,1.4C28.1,16.2,28.1,16.2,28,16.2"/>
<path class="st2" d="M28,19.4c-0.3,0-0.5-0.2-0.6-0.4c-0.1-0.3,0.1-0.6,0.4-0.7c2.3-0.6,6.7-1.3,14.6-1.4c0.3,0,0.6,0.2,0.6,0.6
	c0,0.3-0.2,0.6-0.6,0.6c-7.8,0.2-12.1,0.9-14.3,1.4C28.1,19.4,28.1,19.4,28,19.4"/>
<path class="st2" d="M28,22.5c-0.3,0-0.5-0.2-0.6-0.4c-0.1-0.3,0.1-0.6,0.4-0.7c2.3-0.6,6.7-1.3,14.6-1.4c0.3,0,0.6,0.2,0.6,0.6
	c0,0.3-0.2,0.6-0.6,0.6c-7.8,0.2-12.1,0.9-14.3,1.4C28.1,22.5,28.1,22.5,28,22.5"/>
<path class="st2" d="M28,25.7c-0.3,0-0.5-0.2-0.6-0.4c-0.1-0.3,0.1-0.6,0.4-0.7c2.3-0.6,6.7-1.3,14.6-1.4c0.3,0,0.6,0.2,0.6,0.6
	c0,0.3-0.2,0.6-0.6,0.6c-7.8,0.2-12.1,0.9-14.3,1.4C28.1,25.7,28.1,25.7,28,25.7"/>
<path class="st2" d="M28,28.9c-0.3,0-0.5-0.2-0.6-0.4c-0.1-0.3,0.1-0.6,0.4-0.7c2.3-0.6,6.7-1.3,14.6-1.4c0.3,0,0.6,0.2,0.6,0.6
	c0,0.3-0.2,0.6-0.6,0.6c-7.8,0.2-12.1,0.9-14.3,1.4C28.1,28.9,28.1,28.9,28,28.9"/>
<path class="st2" d="M28,32c-0.3,0-0.5-0.2-0.6-0.4c-0.1-0.3,0.1-0.6,0.4-0.7c2.3-0.6,6.7-1.3,14.6-1.4c0.3,0,0.6,0.2,0.6,0.6
	c0,0.3-0.2,0.6-0.6,0.6c-7.8,0.2-12.1,0.9-14.3,1.4C28.1,32,28.1,32,28,32"/>
<path class="st4" d="M66.2,24.2c0,7.1,0,14.1,0,21.2c0,1.3-0.7,2.4-2,2.9c-0.3,0.1-0.6,0.2-0.9,0.2c-10.4,0-20.7,0-31.1,0
	c-1.5,0-2.8-1.3-2.8-2.8c0-0.1,0-0.2,0-0.4c0-14,0-28.1,0-42.1c0-1.4,0.7-2.5,2-2.9C31.7,0.1,32,0,32.3,0C42.7,0,53,0,63.4,0
	c1.5,0,2.8,1.3,2.8,3c0,6.3,0,12.6,0,18.8C66.2,22.6,66.2,23.4,66.2,24.2"/>
<path class="st5" d="M63.2,24.2c0-5.8,0-11.7,0-17.5c0-0.7,0-0.7-0.7-0.7c-9.8,0-19.6,0-29.4,0c-0.6,0-0.6,0-0.6,0.7
	c0,11.6,0,23.3,0,34.9c0,0.7,0,0.7,0.6,0.7c9.8,0,19.6,0,29.5,0c0.6,0,0.6,0,0.6-0.6C63.2,35.9,63.2,30,63.2,24.2"/>
<polygon class="st1" points="48,19 49.3,19 49.3,19.6 50,19.6 50,20.3 50.7,20.3 50.7,19.7 51.4,19.7 51.4,19 52.8,19 52.8,23.9 
	51.4,23.9 51.4,21.8 50.7,21.8 50.7,22.4 50,22.4 50,21.8 49.4,21.8 49.4,23.9 48,23.9 "/>
<path class="st1" d="M56.1,27h0.7v-1.4h-2v2.1h1.4V27z M56.1,29.8v-0.6h-0.7v-0.7h-0.7v1.3h-1.4v-4.9h4.1v0.7h0.7v2.1h-1.4v0.7h0.7
	v0.7h0.7v0.7H56.1z"/>
<path class="st1" d="M44.7,20.4H44v1.4h2v-1.4h-0.7v-0.7h-0.7V20.4z M47.4,23.9h-1.4v-1.3H44v1.3h-1.4v-3.5h0.6v-0.7H44V19H46
	c0,0.2,0,0.3,0,0.5c0,0.1,0,0.2,0.2,0.2c0.2,0,0.3,0,0.5,0v0.7h0.7V23.9z"/>
<path class="st1" d="M40.7,25.6h-2v3.5h2V25.6z M41.4,24.9c0,0.2,0,0.3,0,0.5c0,0.1,0,0.2,0.2,0.2c0.2,0,0.3,0,0.5,0v3.5h-0.6v0.7
	h-3.5v-0.6h-0.7v-3.6h0.6v-0.7H41.4z"/>
<polygon class="st1" points="54.8,21.7 54.8,23.2 58.3,23.2 58.3,23.9 53.4,23.9 53.4,18.9 58.3,18.9 58.3,19.6 54.8,19.6 54.8,21 
	56.9,21 56.9,21.7 "/>
<polygon class="st1" points="52.9,29.8 48,29.8 48,24.9 52.9,24.9 52.9,25.6 49.4,25.6 49.4,26.9 51.5,26.9 51.5,27.6 49.4,27.6 
	49.4,29.1 52.9,29.1 "/>
<polygon class="st1" points="44.7,27.7 45.3,27.7 45.3,27 46,27 46,24.9 47.5,24.9 47.5,27.7 46.8,27.7 46.8,28.4 46.1,28.4 
	46.1,29.1 45.4,29.1 45.4,29.8 44.7,29.8 44.7,29.2 44,29.2 44,28.4 43.3,28.4 43.3,27.8 42.6,27.8 42.6,24.9 44,24.9 44,27 
	44.7,27 "/>
<polygon class="st1" points="38.6,19.7 38.6,19 42.1,19 42.1,19.6 39.4,19.6 39.4,20.3 38.6,20.3 38.6,22.5 39.3,22.5 39.3,23.2 
	40.7,23.2 40.7,21.8 40,21.8 40,21.1 42.1,21.1 42.1,23.9 38.6,23.9 38.6,23.2 37.9,23.2 37.9,22.5 37.2,22.5 37.2,20.4 37.9,20.4 
	37.9,19.7 "/>
<path class="st6" d="M48,46.2c0.5,0,1.1,0,1.6,0c0.4,0,0.6-0.2,0.6-0.5c0-0.4-0.1-0.6-0.6-0.6c-0.8,0-1.5,0-2.3,0c-0.3,0-0.7,0-1,0
	c-0.3,0-0.6,0.2-0.5,0.6c0,0.4,0.2,0.5,0.6,0.6C46.9,46.3,47.4,46.2,48,46.2"/>
<path class="st6" d="M47.8,2.5c0.5,0,0.8-0.3,0.7-0.8c0-0.5-0.3-0.8-0.8-0.8c-0.5,0-0.8,0.3-0.8,0.8C47,2.2,47.3,2.5,47.8,2.5"/>
</svg>
