<?xml version="1.0" encoding="utf-8"?>
<!-- Generator: Adobe Illustrator 22.0.1, SVG Export Plug-In . SVG Version: 6.00 Build 0)  -->
<svg version="1.1" id="Слой_1" xmlns="http://www.w3.org/2000/svg" xmlns:xlink="http://www.w3.org/1999/xlink" x="0px" y="0px"
	 viewBox="0 0 38.9 52.5" style="enable-background:new 0 0 38.9 52.5;" xml:space="preserve">
<style type="text/css">
	.st0{fill:#C8B8D3;}
	.st1{fill:none;stroke:#6B247E;stroke-width:1.029;stroke-miterlimit:10;}
	.st2{fill:#F0802B;}
	.st3{fill:#A5A7A9;}
	.st4{fill:#5E6264;}
</style>
<path class="st0" d="M19.5,0.5c-10.5,0-19,8.2-19,18.4c0,4.8,1.9,9.2,5,12.4l6.7,8.6l1.7,4.6h11.2l1.7-4.6l7.1-9.1
	c2.8-3.2,4.5-7.4,4.5-11.9C38.4,8.7,29.9,0.5,19.5,0.5"/>
<path class="st1" d="M19.5,0.5c-10.5,0-19,8.2-19,18.4c0,4.8,1.9,9.2,5,12.4l6.7,8.6l1.7,4.6h11.2l1.7-4.6l7.1-9.1
	c2.8-3.2,4.5-7.4,4.5-11.9C38.4,8.7,29.9,0.5,19.5,0.5z"/>
<path class="st2" d="M17.7,43.9h3.5V27.8h-3.5V43.9z M22.1,44.7h-5.2V27h5.2V44.7z"/>
<path class="st2" d="M15.1,27h1.8v-1.8h-1.8V27z M17.7,27.8h-3.5v-3.4h3.5V27.8z"/>
<path class="st2" d="M22.1,27h1.8v-1.8h-1.8V27z M24.7,27.8h-3.5v-3.4h3.5V27.8z"/>
<rect x="12.1" y="42.2" class="st3" width="14.8" height="7.8"/>
<path class="st4" d="M12.1,50c0,0,0.8,2.5,7.3,2.5c6.4,0,7.5-2.5,7.5-2.5H12.1z"/>
<path class="st4" d="M26.9,48.8H12c-0.4,0-0.7-0.3-0.7-0.6c0-0.4,0.3-0.6,0.7-0.6h14.9c0.4,0,0.7,0.3,0.7,0.6
	C27.6,48.5,27.3,48.8,26.9,48.8"/>
<path class="st4" d="M26.9,46.7H12c-0.4,0-0.7-0.3-0.7-0.6c0-0.4,0.3-0.6,0.7-0.6h14.9c0.4,0,0.7,0.3,0.7,0.6
	C27.6,46.4,27.3,46.7,26.9,46.7"/>
<path class="st4" d="M26.9,44.5H12c-0.4,0-0.7-0.3-0.7-0.6c0-0.4,0.3-0.6,0.7-0.6h14.9c0.4,0,0.7,0.3,0.7,0.6
	C27.6,44.3,27.3,44.5,26.9,44.5"/>
</svg>
