<?xml version="1.0" encoding="utf-8"?>
<!-- Generator: Adobe Illustrator 22.0.1, SVG Export Plug-In . SVG Version: 6.00 Build 0)  -->
<svg version="1.1" id="Слой_1" xmlns="http://www.w3.org/2000/svg" xmlns:xlink="http://www.w3.org/1999/xlink" x="0px" y="0px"
	 viewBox="0 0 63 73.3" style="enable-background:new 0 0 63 73.3;" xml:space="preserve">
<style type="text/css">
	.st0{fill:#FFFFFF;}
	.st1{fill:#6B247E;}
	.st2{fill:#F2F2F2;}
	.st3{fill:#AEB0B2;}
	.st4{fill:#07B1D9;}
	.st5{fill:#155FAA;}
	.st6{fill:#87CFE8;}
	.st7{fill:#0D87C3;}
	.st8{fill:#84C2E0;}
</style>
<path class="st0" d="M31.5,31.5l-9.7-30C25.1,0.5,28,0,31.5,0V31.5z"/>
<path class="st1" d="M31.5,31.5V0C48.9,0,63,14.1,63,31.5S48.9,63,31.5,63C14.1,63,0,48.9,0,31.5c0-13.9,8.5-25.7,21.8-30L31.5,31.5
	z"/>
<path class="st2" d="M31.5,7.9c-2.6,0-4.8,0.4-7.3,1.2c-9.9,3.2-16.3,12-16.3,22.5c0,13.1,10.6,23.6,23.6,23.6
	c13.1,0,23.6-10.6,23.6-23.6S44.6,7.9,31.5,7.9"/>
<path class="st3" d="M46,62.4c0,0-5.1,10.9-14.4,10.9c-9.3,0-14.4-10.9-14.4-10.9s5.1-10.9,14.4-10.9C40.9,51.5,46,62.4,46,62.4"/>
<path class="st0" d="M46,62.4c0,0-5.1,8.9-14.4,8.9c-9.3,0-14.4-8.9-14.4-8.9s5.1-8.9,14.4-8.9C40.9,53.5,46,62.4,46,62.4"/>
<path class="st4" d="M39.2,62.4c0,4.2-3.4,7.5-7.5,7.5c-4.2,0-7.5-3.4-7.5-7.5s3.4-7.5,7.5-7.5C35.8,54.8,39.2,58.2,39.2,62.4"/>
<path class="st5" d="M35.7,62.4c0,2.2-1.8,4.1-4.1,4.1c-2.2,0-4.1-1.8-4.1-4.1c0-2.2,1.8-4.1,4.1-4.1C33.9,58.3,35.7,60.1,35.7,62.4
	"/>
<path class="st6" d="M31.6,53.6c-4.9,0-8.9,4-8.9,8.9c0,4.9,4,8.9,8.9,8.9c4.9,0,8.9-4,8.9-8.9C40.5,57.5,36.5,53.6,31.6,53.6
	 M31.6,69.9c-4.2,0-7.5-3.4-7.5-7.5s3.4-7.5,7.5-7.5c4.2,0,7.5,3.4,7.5,7.5S35.8,69.9,31.6,69.9"/>
<path class="st4" d="M31.6,54.8c-4.2,0-7.5,3.4-7.5,7.5s3.4,7.5,7.5,7.5c4.2,0,7.5-3.4,7.5-7.5S35.8,54.8,31.6,54.8 M30.9,58.4
	c0.5-1.2,1.7-2,3.1-2c1.9,0,3.4,1.5,3.4,3.4c0,1.2-0.6,2.3-1.6,2.9c-0.1,2.1-1.9,3.8-4,3.8c-2.2,0-4.1-1.8-4.1-4.1
	C27.6,60.4,29,58.8,30.9,58.4"/>
<path class="st7" d="M30.9,58.4c-1.9,0.4-3.3,2-3.3,4c0,2.2,1.8,4.1,4.1,4.1c2.2,0,3.9-1.7,4-3.8c-0.5,0.3-1.1,0.5-1.8,0.5
	c-1.9,0-3.4-1.5-3.4-3.4C30.6,59.3,30.7,58.8,30.9,58.4"/>
<path class="st6" d="M33.9,56.4c-1.4,0-2.5,0.8-3.1,2c0.2,0,0.5-0.1,0.8-0.1c2.2,0,4.1,1.8,4.1,4.1c0,0.1,0,0.2,0,0.3
	c1-0.6,1.6-1.7,1.6-2.9C37.3,57.9,35.8,56.4,33.9,56.4"/>
<path class="st8" d="M31.6,58.3c-0.3,0-0.5,0-0.8,0.1c-0.2,0.4-0.3,0.9-0.3,1.4c0,1.9,1.5,3.4,3.4,3.4c0.6,0,1.2-0.2,1.8-0.5
	c0-0.1,0-0.2,0-0.3C35.7,60.1,33.9,58.3,31.6,58.3"/>
<g>
	<path class="st1" d="M21.9,22.7c0-0.7,0.1-1.3,0.2-1.7c0.2-0.6,0.5-1.1,1-1.3c0.2-0.1,0.4-0.1,0.5-0.2c0.1,0,0.4-0.1,0.7-0.1
		c0.3-0.1,0.6-0.1,0.7-0.1l0.1,0.5c-0.1,0.1-0.3,0.1-0.6,0.1c-0.2,0-0.4,0.1-0.6,0.1c-0.5,0.1-0.8,0.3-1,0.6
		c-0.1,0.2-0.2,0.4-0.2,0.7c0.1-0.1,0.2-0.2,0.4-0.2c0.2-0.1,0.4-0.1,0.7-0.1c0.6,0,1,0.2,1.3,0.6c0.3,0.4,0.4,0.9,0.4,1.6
		c0,0.7-0.2,1.2-0.5,1.6s-0.8,0.6-1.3,0.6c-0.6,0-1-0.2-1.3-0.6C22.1,24.3,21.9,23.7,21.9,22.7z M22.6,22.8c0,0.7,0.1,1.2,0.3,1.5
		s0.4,0.4,0.8,0.4s0.6-0.1,0.8-0.4c0.2-0.2,0.3-0.6,0.3-1.1c0-0.5-0.1-0.9-0.3-1.2c-0.2-0.3-0.5-0.4-0.8-0.4c-0.4,0-0.7,0.1-1,0.4
		C22.6,22.2,22.6,22.5,22.6,22.8z"/>
	<path class="st1" d="M29.5,21.7c0.3,0.4,0.5,0.9,0.5,1.5c0,0.6-0.2,1.2-0.5,1.6c-0.4,0.4-0.8,0.6-1.4,0.6c-0.6,0-1-0.2-1.4-0.6
		c-0.3-0.4-0.5-0.9-0.5-1.6c0-0.6,0.2-1.2,0.5-1.5c0.4-0.4,0.8-0.6,1.4-0.6C28.7,21.1,29.2,21.3,29.5,21.7z M27.2,22.1
		c-0.2,0.3-0.3,0.6-0.3,1.1s0.1,0.8,0.3,1.1c0.2,0.3,0.5,0.4,0.9,0.4c0.4,0,0.6-0.1,0.9-0.4s0.3-0.6,0.3-1.1c0-0.5-0.1-0.8-0.3-1.1
		c-0.2-0.3-0.5-0.4-0.9-0.4S27.5,21.8,27.2,22.1z"/>
	<path class="st1" d="M33.3,21.8h-1.1l-0.6,2.5c-0.1,0.4-0.2,0.6-0.4,0.8c-0.2,0.1-0.5,0.2-0.9,0.2v-0.6c0.2,0,0.4,0,0.4-0.1
		c0.1-0.1,0.2-0.3,0.2-0.5l0.7-2.9H34v4.1h-0.7V21.8z"/>
	<path class="st1" d="M36.9,24.7c0.4,0,0.8-0.1,1.2-0.3l0.3,0.5c-0.1,0.1-0.4,0.2-0.7,0.3c-0.3,0.1-0.6,0.1-0.8,0.1
		c-0.6,0-1.1-0.2-1.4-0.6c-0.3-0.4-0.5-0.9-0.5-1.5s0.2-1.2,0.5-1.6s0.8-0.6,1.3-0.6s1,0.2,1.3,0.5c0.3,0.4,0.5,0.9,0.5,1.5l0,0.3
		h-2.9c0,0.4,0.1,0.7,0.3,1S36.5,24.7,36.9,24.7z M37.8,22.8c0-0.4-0.1-0.8-0.4-1c-0.2-0.1-0.4-0.2-0.6-0.2S36.3,21.7,36,22
		c-0.2,0.2-0.3,0.5-0.4,0.9H37.8z"/>
	<path class="st1" d="M41.2,24.7c0.4,0,0.8-0.1,1.2-0.3l0.3,0.5c-0.1,0.1-0.4,0.2-0.7,0.3c-0.3,0.1-0.6,0.1-0.8,0.1
		c-0.6,0-1.1-0.2-1.4-0.6c-0.3-0.4-0.5-0.9-0.5-1.5s0.2-1.2,0.5-1.6s0.8-0.6,1.3-0.6s1,0.2,1.3,0.5c0.3,0.4,0.5,0.9,0.5,1.5l0,0.3
		h-2.9c0,0.4,0.1,0.7,0.3,1S40.8,24.7,41.2,24.7z M42.1,22.8c0-0.4-0.1-0.8-0.4-1c-0.2-0.1-0.4-0.2-0.6-0.2s-0.5,0.1-0.7,0.3
		c-0.2,0.2-0.3,0.5-0.4,0.9H42.1z"/>
</g>
<g>
	<path class="st1" d="M23.4,37c-1.6,0-2.3-0.7-2.4-0.8l0.7-1c0.1,0,0.7,0.5,1.6,0.5c1.4,0,2-0.9,2-2.2c-0.4,0.6-1.2,0.9-1.9,0.9
		c-1.5,0-2.6-1.1-2.6-2.6c0-1.7,1.2-2.8,2.9-2.8c1.9,0,3.1,1.5,3.1,3.9C26.8,35.3,25.6,37,23.4,37z M23.7,30.3
		c-0.8,0-1.3,0.6-1.3,1.4c0,0.8,0.5,1.4,1.3,1.4c0.8,0,1.4-0.6,1.4-1.4C25.1,30.8,24.5,30.3,23.7,30.3z"/>
	<path class="st1" d="M31.4,37c-1.9,0-3.1-1.5-3.1-3.9c0-2.5,1.3-4.2,3.4-4.2c1.6,0,2.3,0.7,2.4,0.8l-0.7,1c-0.1,0-0.7-0.5-1.6-0.5
		c-1.4,0-2,0.9-2,2.2c0.4-0.6,1.2-0.9,1.9-0.9c1.5,0,2.6,1.1,2.6,2.6C34.3,35.8,33.1,37,31.4,37z M31.5,32.8c-0.8,0-1.4,0.6-1.4,1.4
		c0,0.9,0.6,1.4,1.4,1.4c0.8,0,1.3-0.6,1.3-1.4C32.8,33.4,32.3,32.8,31.5,32.8z"/>
	<path class="st1" d="M37.4,33.1c-1.1,0-1.7-0.8-1.7-2.1c0-1.2,0.7-2.1,1.7-2.1s1.8,0.8,1.8,2C39.2,32.3,38.5,33.1,37.4,33.1z
		 M37.4,29.8c-0.5,0-0.8,0.4-0.8,1.3c0,0.9,0.3,1.3,0.8,1.3c0.7,0,0.8-0.7,0.8-1.3C38.2,30.2,37.9,29.8,37.4,29.8z M37.5,37.3
		l-0.8-0.5l5.3-8.1l0.8,0.5L37.5,37.3z M42.2,36.9c-1.1,0-1.7-0.8-1.7-2.1c0-1.2,0.7-2.1,1.7-2.1s1.8,0.8,1.8,2
		C43.9,36.1,43.3,36.9,42.2,36.9z M42.2,33.6c-0.5,0-0.8,0.4-0.8,1.3c0,0.9,0.3,1.3,0.8,1.3c0.7,0,0.8-0.7,0.8-1.3
		C43,34,42.6,33.6,42.2,33.6z"/>
</g>
<g>
	<path class="st1" d="M22.2,46.2v-1.7c0.2,0,0.3,0,0.4-0.1s0.1-0.2,0.2-0.4c0.1-0.2,0.1-0.4,0.1-0.5c0-0.2,0.1-0.3,0.1-0.3l0.5-2.1
		h2.3v3.4h0.5v1.7h-0.7v-1h-2.7v1H22.2z M25,44.6v-2.9H24l-0.4,1.6c0,0,0,0.1,0,0.2c0,0.1,0,0.2-0.1,0.2s0,0.1-0.1,0.2
		c0,0.1,0,0.2-0.1,0.2c0,0,0,0.1-0.1,0.2c0,0.1-0.1,0.1-0.2,0.2H25z"/>
	<path class="st1" d="M28.8,44.7c0.4,0,0.8-0.1,1.2-0.3l0.3,0.5c-0.1,0.1-0.4,0.2-0.7,0.3c-0.3,0.1-0.6,0.1-0.8,0.1
		c-0.6,0-1.1-0.2-1.4-0.6c-0.3-0.4-0.5-0.9-0.5-1.5s0.2-1.2,0.5-1.6s0.8-0.6,1.3-0.6s1,0.2,1.3,0.5c0.3,0.4,0.5,0.9,0.5,1.5l0,0.3
		h-2.9c0,0.4,0.1,0.7,0.3,1S28.4,44.7,28.8,44.7z M29.7,42.8c0-0.4-0.1-0.8-0.4-1c-0.2-0.1-0.4-0.2-0.6-0.2s-0.5,0.1-0.7,0.3
		c-0.2,0.2-0.3,0.5-0.4,0.9H29.7z"/>
	<path class="st1" d="M32.9,45.2h-0.7v-3.5h-1.3v-0.6h3.4v0.6h-1.3V45.2z"/>
	<path class="st1" d="M36.4,44.7c0.4,0,0.8-0.1,1.2-0.3l0.3,0.5c-0.1,0.1-0.4,0.2-0.7,0.3c-0.3,0.1-0.6,0.1-0.8,0.1
		c-0.6,0-1.1-0.2-1.4-0.6c-0.3-0.4-0.5-0.9-0.5-1.5s0.2-1.2,0.5-1.6s0.8-0.6,1.3-0.6s1,0.2,1.3,0.5c0.3,0.4,0.5,0.9,0.5,1.5l0,0.3
		h-2.9c0,0.4,0.1,0.7,0.3,1S36,44.7,36.4,44.7z M37.3,42.8c0-0.4-0.1-0.8-0.4-1c-0.2-0.1-0.4-0.2-0.6-0.2s-0.5,0.1-0.7,0.3
		c-0.2,0.2-0.3,0.5-0.4,0.9H37.3z"/>
	<path class="st1" d="M38.9,45.2v-4.1h0.7l0,3l1.9-3h0.7v4.1h-0.7l0-3l-1.9,3H38.9z M41.8,39.4c0,0.3-0.1,0.6-0.3,0.8
		c-0.2,0.2-0.5,0.3-0.8,0.3c-0.3,0-0.6-0.1-0.8-0.3s-0.3-0.5-0.3-0.8H40c0,0.2,0.1,0.3,0.2,0.4c0.1,0.1,0.3,0.1,0.5,0.1
		c0.2,0,0.4,0,0.5-0.1c0.1-0.1,0.2-0.2,0.2-0.4H41.8z"/>
</g>
</svg>
