<?xml version="1.0" encoding="utf-8"?>
<!-- Generator: Adobe Illustrator 22.0.1, SVG Export Plug-In . SVG Version: 6.00 Build 0)  -->
<svg version="1.1" id="Слой_1" xmlns="http://www.w3.org/2000/svg" xmlns:xlink="http://www.w3.org/1999/xlink" x="0px" y="0px"
	 viewBox="0 0 63 78.8" style="enable-background:new 0 0 63 78.8;" xml:space="preserve">
<style type="text/css">
	.st0{fill:#FFFFFF;}
	.st1{fill:#6B247E;}
	.st2{fill:#F2F2F2;}
	.st3{fill:#AEB0B2;}
	.st4{fill:#07B1D9;}
	.st5{fill:#155FAA;}
	.st6{fill:#87CFE8;}
	.st7{fill:#5BB1C8;}
	.st8{fill:#0D87C3;}
	.st9{fill:#C4E5F0;}
	.st10{fill:#D6A47E;}
</style>
<polygon class="st0" points="23.6,5.5 27.1,0.5 31.5,0.1 34.9,7.2 31.6,10.2 "/>
<path class="st1" d="M31.5,31.7l-2-31.6c1.4-0.2,0.6,0.1,2,0.1V31.7z"/>
<path class="st0" d="M31.5,31.7V0.1C48.9,0.1,63,14.3,63,31.7S48.9,63.2,31.5,63.2C14.1,63.2,0,49.1,0,31.7c0-16,11.3-29,27.1-31.2
	L31.5,31.7z"/>
<path class="st2" d="M31.5,8c-2.6,0-4.8,0.4-7.3,1.2c-9.9,3.2-16.3,12-16.3,22.5c0,13.1,10.6,23.6,23.6,23.6
	c13.1,0,23.6-10.6,23.6-23.6S44.6,8,31.5,8"/>
<path class="st3" d="M44.5,63c0,0-5.1,10.9-14.4,10.9S15.7,63,15.7,63S20.8,52,30.1,52S44.5,63,44.5,63"/>
<path class="st0" d="M44.5,63c0,0-5.1,8.9-14.4,8.9S15.7,63,15.7,63S20.8,54,30.1,54S44.5,63,44.5,63"/>
<path class="st4" d="M37.6,63c0,4.2-3.4,7.5-7.5,7.5c-4.2,0-7.5-3.4-7.5-7.5s3.4-7.5,7.5-7.5C34.2,55.4,37.6,58.8,37.6,63"/>
<path class="st5" d="M34.1,63c0,2.2-1.8,4.1-4.1,4.1C27.8,67,26,65.2,26,63c0-2.2,1.8-4.1,4.1-4.1C32.3,58.9,34.1,60.7,34.1,63"/>
<path class="st6" d="M43.5,64.7c-1.9,3.1-6.4,9-13.2,9.2c1.3,2.9,4.1,4.9,7.5,4.9c4.5,0,8.2-3.7,8.2-8.2C46,68.3,45,66.2,43.5,64.7"
	/>
<path class="st7" d="M43.3,64.6c-2,2.6-6.5,7.3-13.3,7.3c-0.1,0-0.2,0-0.4,0c0.1,0.7,0.3,1.4,0.6,2c6.8-0.1,11.3-6.1,13.2-9.2
	C43.4,64.7,43.4,64.6,43.3,64.6"/>
<path class="st6" d="M37.8,62.4c-0.1,0-0.1,0-0.2,0c0,0.2,0,0.4,0,0.5c0,0.6-0.1,1.1-0.2,1.6c0.9,0.4,1.6,1.3,1.6,2.3
	c0,1.4-1.1,2.5-2.5,2.5c-0.6,0-1.2-0.2-1.7-0.6c-1.3,1.1-3,1.7-4.8,1.7c-0.2,0-0.3,0-0.5,0c0,0,0,0.1,0,0.1c0,0.4,0,0.9,0.1,1.3
	c0.1,0,0.2,0,0.4,0c6.8,0,11.3-4.7,13.3-7.3C41.9,63.2,39.9,62.4,37.8,62.4"/>
<path class="st4" d="M37.6,62.4c-1.2,0-2.4,0.3-3.5,0.9c-0.2,2-1.7,3.5-3.7,3.7c-0.5,1.1-0.8,2.2-0.8,3.5c0.2,0,0.3,0,0.5,0
	c1.8,0,3.5-0.6,4.8-1.7c-0.5-0.5-0.8-1.1-0.8-1.9c0-1.4,1.1-2.5,2.5-2.5c0.3,0,0.6,0.1,0.9,0.2c0.1-0.5,0.2-1.1,0.2-1.6
	C37.6,62.8,37.6,62.6,37.6,62.4"/>
<path class="st8" d="M34.1,63.3c-1.6,0.8-2.9,2.1-3.7,3.7C32.4,66.8,34,65.2,34.1,63.3"/>
<path class="st9" d="M37.4,64.6c-0.4,1.7-1.3,3.1-2.6,4.2c0.4,0.4,1,0.6,1.6,0.6c1.4,0,2.5-1.1,2.5-2.5C39,65.9,38.4,65,37.4,64.6"
	/>
<path class="st6" d="M36.5,64.4c-1.4,0-2.5,1.1-2.5,2.5c0,0.7,0.3,1.4,0.8,1.9c1.3-1.1,2.2-2.5,2.6-4.2
	C37.2,64.5,36.8,64.4,36.5,64.4"/>
<path class="st10" d="M49.2,78.8l-5.2-9.3c-0.8-1.5-0.3-3.3,1.2-4.1c1.5-0.8,3.3-0.3,4.1,1.2l6.9,12.3L49.2,78.8z"/>
<g>
	<path class="st1" d="M15.9,25.2h-0.7L15,22.4l-1,2.9h-0.5l-1-2.9l-0.3,2.9h-0.6l0.5-4.1h0.7l1.1,3l1.1-3h0.7L15.9,25.2z"/>
	<path class="st1" d="M18.8,24.7c0.4,0,0.8-0.1,1.2-0.3l0.3,0.5c-0.1,0.1-0.4,0.2-0.7,0.3c-0.3,0.1-0.6,0.1-0.8,0.1
		c-0.6,0-1.1-0.2-1.4-0.6c-0.3-0.4-0.5-0.9-0.5-1.5s0.2-1.2,0.5-1.6s0.8-0.6,1.3-0.6s1,0.2,1.3,0.5c0.3,0.4,0.5,0.9,0.5,1.5l0,0.3
		h-2.9c0,0.4,0.1,0.7,0.3,1S18.4,24.7,18.8,24.7z M19.7,22.8c0-0.4-0.1-0.8-0.4-1c-0.2-0.1-0.4-0.2-0.6-0.2s-0.5,0.1-0.7,0.3
		c-0.2,0.2-0.3,0.5-0.4,0.9H19.7z"/>
	<path class="st1" d="M22,23.4v1.8h-0.7v-4.1H22v1.6h1.9v-1.6h0.7v4.1h-0.7v-1.8H22z"/>
	<path class="st1" d="M27.5,24.7c0.4,0,0.8-0.1,1.2-0.3l0.3,0.5c-0.1,0.1-0.4,0.2-0.7,0.3c-0.3,0.1-0.6,0.1-0.8,0.1
		c-0.6,0-1.1-0.2-1.4-0.6c-0.3-0.4-0.5-0.9-0.5-1.5s0.2-1.2,0.5-1.6s0.8-0.6,1.3-0.6s1,0.2,1.3,0.5c0.3,0.4,0.5,0.9,0.5,1.5l0,0.3
		h-2.9c0,0.4,0.1,0.7,0.3,1S27.1,24.7,27.5,24.7z M28.4,22.8c0-0.4-0.1-0.8-0.4-1c-0.2-0.1-0.4-0.2-0.6-0.2s-0.5,0.1-0.7,0.3
		c-0.2,0.2-0.3,0.5-0.4,0.9H28.4z"/>
	<path class="st1" d="M31.7,24.7c0.4,0,0.8-0.1,1.2-0.3l0.3,0.5c-0.1,0.1-0.4,0.2-0.7,0.3c-0.3,0.1-0.6,0.1-0.8,0.1
		c-0.6,0-1.1-0.2-1.4-0.6c-0.3-0.4-0.5-0.9-0.5-1.5s0.2-1.2,0.5-1.6s0.8-0.6,1.3-0.6s1,0.2,1.3,0.5c0.3,0.4,0.5,0.9,0.5,1.5l0,0.3
		h-2.9c0,0.4,0.1,0.7,0.3,1S31.3,24.7,31.7,24.7z M32.6,22.8c0-0.4-0.1-0.8-0.4-1c-0.2-0.1-0.4-0.2-0.6-0.2s-0.5,0.1-0.7,0.3
		c-0.2,0.2-0.3,0.5-0.4,0.9H32.6z"/>
	<path class="st1" d="M35.3,24.6c0,0.5-0.1,0.9-0.4,1.3c-0.2,0.2-0.3,0.4-0.5,0.5L34,26c0.1-0.1,0.1-0.1,0.2-0.2
		c0.1-0.1,0.1-0.2,0.2-0.5c0.1-0.2,0.1-0.4,0.1-0.6v-0.2h0.8V24.6z"/>
	<path class="st1" d="M41,21.2h0.7v4.1H41v-1.9c-0.3,0.2-0.7,0.3-1.1,0.3c-0.6,0-1-0.2-1.2-0.5c-0.2-0.3-0.3-0.7-0.3-1.2v-0.7h0.7
		v0.7c0,0.4,0.1,0.7,0.2,0.9c0.1,0.2,0.4,0.3,0.7,0.3s0.7-0.1,1-0.3V21.2z"/>
	<path class="st1" d="M44.6,24.7c0.4,0,0.8-0.1,1.2-0.3l0.3,0.5c-0.1,0.1-0.4,0.2-0.7,0.3c-0.3,0.1-0.6,0.1-0.8,0.1
		c-0.6,0-1.1-0.2-1.4-0.6c-0.3-0.4-0.5-0.9-0.5-1.5s0.2-1.2,0.5-1.6s0.8-0.6,1.3-0.6s1,0.2,1.3,0.5c0.3,0.4,0.5,0.9,0.5,1.5l0,0.3
		h-2.9c0,0.4,0.1,0.7,0.3,1S44.2,24.7,44.6,24.7z M45.5,22.8c0-0.4-0.1-0.8-0.4-1c-0.2-0.1-0.4-0.2-0.6-0.2S44,21.7,43.7,22
		c-0.2,0.2-0.3,0.5-0.4,0.9H45.5z"/>
	<path class="st1" d="M51.5,25.2h-0.7l-0.3-2.9l-1,2.9H49l-1-2.9l-0.3,2.9h-0.6l0.5-4.1h0.7l1.1,3l1.1-3h0.7L51.5,25.2z"/>
</g>
<g>
	<path class="st1" d="M22.8,36.8V31l-1.7,1.1L20.4,31l2.8-1.9h1.2v7.7H22.8z"/>
	<path class="st1" d="M30.5,37c-2,0-3.2-1.6-3.2-4.1c0-2.4,1.2-4,3.2-4c2,0,3.2,1.6,3.2,4C33.7,35.4,32.5,37,30.5,37z M30.5,30.2
		c-1,0-1.6,0.9-1.6,2.7c0,1.8,0.6,2.7,1.6,2.7c1,0,1.6-0.9,1.6-2.7C32.1,31.1,31.4,30.2,30.5,30.2z"/>
	<path class="st1" d="M36.6,33.1c-1.1,0-1.7-0.8-1.7-2.1c0-1.2,0.7-2.1,1.7-2.1s1.8,0.8,1.8,2C38.3,32.3,37.7,33.1,36.6,33.1z
		 M36.6,29.8c-0.5,0-0.8,0.4-0.8,1.3c0,0.9,0.3,1.3,0.8,1.3c0.7,0,0.8-0.7,0.8-1.3C37.4,30.2,37,29.8,36.6,29.8z M36.7,37.3
		l-0.8-0.5l5.3-8.1l0.8,0.5L36.7,37.3z M41.3,36.9c-1.1,0-1.7-0.8-1.7-2.1c0-1.2,0.7-2.1,1.7-2.1s1.8,0.8,1.8,2
		C43.1,36.1,42.4,36.9,41.3,36.9z M41.4,33.6c-0.5,0-0.8,0.4-0.8,1.3c0,0.9,0.3,1.3,0.8,1.3c0.7,0,0.8-0.7,0.8-1.3
		C42.1,34,41.8,33.6,41.4,33.6z"/>
</g>
<g>
	<path class="st1" d="M21.3,46.2v-1.7c0.2,0,0.3,0,0.4-0.1s0.1-0.2,0.2-0.4c0.1-0.2,0.1-0.4,0.1-0.5c0-0.2,0.1-0.3,0.1-0.3l0.5-2.1
		h2.3v3.4h0.5v1.7h-0.7v-1H22v1H21.3z M24.2,44.6v-2.9h-1.1l-0.4,1.6c0,0,0,0.1,0,0.2c0,0.1,0,0.2-0.1,0.2s0,0.1-0.1,0.2
		c0,0.1,0,0.2-0.1,0.2c0,0,0,0.1-0.1,0.2c0,0.1-0.1,0.1-0.2,0.2H24.2z"/>
	<path class="st1" d="M28,44.7c0.4,0,0.8-0.1,1.2-0.3l0.3,0.5c-0.1,0.1-0.4,0.2-0.7,0.3c-0.3,0.1-0.6,0.1-0.8,0.1
		c-0.6,0-1.1-0.2-1.4-0.6c-0.3-0.4-0.5-0.9-0.5-1.5s0.2-1.2,0.5-1.6s0.8-0.6,1.3-0.6s1,0.2,1.3,0.5c0.3,0.4,0.5,0.9,0.5,1.5l0,0.3
		h-2.9c0,0.4,0.1,0.7,0.3,1S27.6,44.7,28,44.7z M28.9,42.8c0-0.4-0.1-0.8-0.4-1c-0.2-0.1-0.4-0.2-0.6-0.2s-0.5,0.1-0.7,0.3
		c-0.2,0.2-0.3,0.5-0.4,0.9H28.9z"/>
	<path class="st1" d="M32.1,45.2h-0.7v-3.5H30v-0.6h3.4v0.6h-1.3V45.2z"/>
	<path class="st1" d="M35.6,44.7c0.4,0,0.8-0.1,1.2-0.3l0.3,0.5c-0.1,0.1-0.4,0.2-0.7,0.3c-0.3,0.1-0.6,0.1-0.8,0.1
		c-0.6,0-1.1-0.2-1.4-0.6c-0.3-0.4-0.5-0.9-0.5-1.5s0.2-1.2,0.5-1.6S35,41,35.5,41s1,0.2,1.3,0.5c0.3,0.4,0.5,0.9,0.5,1.5l0,0.3
		h-2.9c0,0.4,0.1,0.7,0.3,1S35.2,44.7,35.6,44.7z M36.5,42.8c0-0.4-0.1-0.8-0.4-1c-0.2-0.1-0.4-0.2-0.6-0.2s-0.5,0.1-0.7,0.3
		c-0.2,0.2-0.3,0.5-0.4,0.9H36.5z"/>
	<path class="st1" d="M38.1,45.2v-4.1h0.7l0,3l1.9-3h0.7v4.1h-0.7l0-3l-1.9,3H38.1z M41,39.4c0,0.3-0.1,0.6-0.3,0.8
		c-0.2,0.2-0.5,0.3-0.8,0.3c-0.3,0-0.6-0.1-0.8-0.3s-0.3-0.5-0.3-0.8h0.5c0,0.2,0.1,0.3,0.2,0.4c0.1,0.1,0.3,0.1,0.5,0.1
		c0.2,0,0.4,0,0.5-0.1c0.1-0.1,0.2-0.2,0.2-0.4H41z"/>
</g>
</svg>
