<?xml version="1.0" encoding="utf-8"?>
<svg xmlns="http://www.w3.org/2000/svg" xmlns:xlink="http://www.w3.org/1999/xlink" viewBox="0 0 26 26">
    <defs>
        <style>.cls-1{fill:url(#gr1);}.cls-2{fill:#fff;}</style>
        <linearGradient id="gr1" y1="15" x2="26" y2="15" gradientTransform="matrix(1, 0, 0, -1, 0, 28)" gradientUnits="userSpaceOnUse">
            <stop offset="0" stop-color="#6c207f"/>
            <stop offset="1" stop-color="#a02b91"/>
        </linearGradient>
    </defs>
    <circle class="cls-1" cx="13" cy="13" r="13"/>
    <path class="cls-2" d="M12.94,11a2,2,0,0,0-1.42.59,2,2,0,0,0,0,2.86,2,2,0,0,0,1.42.59,2,2,0,0,0,0-4Zm0-1.35a3.35,3.35,0,0,1,2.37,1,3.38,3.38,0,0,1,0,4.76,3.36,3.36,0,1,1-2.37-5.75Zm4.35-.17a.87.87,0,0,1-.24.6.83.83,0,0,1-1.19,0,.86.86,0,0,1,0-1.19.83.83,0,0,1,1.19,0A.87.87,0,0,1,17.29,9.46ZM12.94,7.61c-1.66,0-1.93,0-2.7,0A3.71,3.71,0,0,0,9,7.88a1.8,1.8,0,0,0-.72.47,1.88,1.88,0,0,0-.47.73,3.71,3.71,0,0,0-.23,1.21c0,.74,0,1,0,2.71s0,1.94,0,2.71a3.66,3.66,0,0,0,.23,1.21,1.77,1.77,0,0,0,.47.73,1.8,1.8,0,0,0,.72.47,3.71,3.71,0,0,0,1.21.23c.74,0,1,0,2.7,0s1.93,0,2.7,0a4,4,0,0,0,1.2-.22,2.06,2.06,0,0,0,.73-.48,2,2,0,0,0,.47-.72,3.86,3.86,0,0,0,.22-1.22c0-.74,0-1,0-2.71s0-1.94,0-2.71A4,4,0,0,0,18,9.08a2,2,0,0,0-.47-.73,2.11,2.11,0,0,0-.73-.48,4,4,0,0,0-1.2-.22C14.9,7.62,14.64,7.61,12.94,7.61Zm0-1.34c1.82,0,2,0,2.76,0a4.81,4.81,0,0,1,1.63.31,3.16,3.16,0,0,1,1.18.78,3.28,3.28,0,0,1,.78,1.19,5.35,5.35,0,0,1,.31,1.63c0,.72,0,.95,0,2.78s0,2.06,0,2.78a5.35,5.35,0,0,1-.31,1.63,3.16,3.16,0,0,1-.78,1.19,3.2,3.2,0,0,1-1.18.78,4.81,4.81,0,0,1-1.63.31c-.72,0-.94,0-2.76,0s-2,0-2.77,0a4.69,4.69,0,0,1-1.62-.31,3.16,3.16,0,0,1-1.19-.78,3.26,3.26,0,0,1-.77-1.19,4.81,4.81,0,0,1-.31-1.63c0-.72,0-.95,0-2.78s0-2.06,0-2.78a4.81,4.81,0,0,1,.31-1.63A3.14,3.14,0,0,1,7.36,7.4a3.16,3.16,0,0,1,1.19-.78,4.69,4.69,0,0,1,1.62-.31C10.89,6.27,11.12,6.27,12.94,6.27Z"/>
</svg>