<svg width="540" height="23" viewBox="0 0 540 23" fill="none" xmlns="http://www.w3.org/2000/svg">
<g opacity="0.9">
<path d="M0 0.250292V18.5573H0.617554L4.72327 3.22697H4.77756V18.5573H5.41208V0.250292H4.79792L0.678631 15.5985H0.62434V0.250292H0Z" fill="white"/>
<path d="M7.25965 0.250292V18.5573H7.85685V3.78119H7.91114L10.2558 18.5573H10.8326L13.1773 3.78119H13.2316V18.5573H13.8288V0.250292H13.0959L10.5748 16.1974H10.5137L7.99257 0.250292H7.25965Z" fill="white"/>
<path d="M15.6764 18.5573H19.7753V17.0556H16.3109V10.1457H19.4937V8.644H16.3109V1.75204H19.7074V0.250292H15.6764V18.5573Z" fill="white"/>
<path d="M21.9842 0.259231H21.3497V18.5663H21.9842V10.3782H23.3653C23.4976 15.536 24.6988 18.8076 26.3546 18.8076C28.1123 18.8076 29.361 15.1337 29.361 9.40381C29.361 3.67392 28.1123 0 26.3546 0C24.6547 0 23.4297 3.45939 23.3551 8.87641H21.9842V0.259231ZM28.7434 9.40381C28.7468 14.3292 27.7255 17.2344 26.3546 17.2344C24.9804 17.2344 23.9658 14.3113 23.9658 9.40381C23.9658 4.46949 24.9906 1.57326 26.3546 1.57326C27.7255 1.57326 28.7434 4.47843 28.7434 9.40381Z" fill="white"/>
<path d="M30.6241 1.75204H32.8262V18.5573H33.4607V1.75204H35.6629V0.250292H30.6241V1.75204Z" fill="white"/>
<path d="M42.2448 5.97124C42.0174 2.60124 40.9723 0 39.4929 0C37.7387 0 36.49 3.67392 36.49 9.40381C36.49 15.1337 37.7387 18.8076 39.4929 18.8076C40.9723 18.8076 42.0174 16.1974 42.2448 12.8364H41.6068C41.4134 15.3482 40.5821 17.2344 39.4929 17.2344C38.1764 17.2344 37.1041 14.4901 37.1041 9.40381C37.1041 4.33541 38.1764 1.57326 39.4929 1.57326C40.5821 1.57326 41.4134 3.46833 41.6068 5.97124H42.2448Z" fill="white"/>
<path d="M47.919 18.5573V0.250292H45.6761C44.2001 0.250292 43.4366 2.52973 43.4366 5.72989C43.4366 8.17917 43.8845 10.0564 44.7498 10.8072L43.1448 18.5573H43.8777L45.4012 11.129C45.4861 11.1469 45.5743 11.1558 45.6659 11.1558H47.2844V18.5573H47.919ZM47.2844 9.62728H45.6829C44.5937 9.62728 44.0609 8.12554 44.0609 5.72989C44.0609 3.33424 44.5937 1.75204 45.6931 1.75204H47.2844V9.62728Z" fill="white"/>
<path d="M57.4079 0.250292H52.3996V18.5573H53.0341V1.75204H56.7768V18.5573H57.4079V0.250292Z" fill="white"/>
<path d="M59.2063 18.5573H59.8408V11.5581H61.4593C62.9286 11.5581 63.6886 9.09988 63.6886 5.89973C63.6886 2.69957 62.9286 0.250292 61.4492 0.250292H59.2063V18.5573ZM59.8408 10.0564V1.75204H61.4322C62.5316 1.75204 63.0643 3.49514 63.0643 5.89973C63.0643 8.29538 62.5316 10.0564 61.4424 10.0564H59.8408Z" fill="white"/>
<path d="M70.8753 9.40381C70.8753 3.67392 69.6267 0 67.869 0C66.1147 0 64.8661 3.68286 64.8661 9.40381C64.8661 15.1248 66.1114 18.8076 67.869 18.8076C69.6267 18.8076 70.8753 15.1337 70.8753 9.40381ZM70.2578 9.40381C70.2612 14.3292 69.2398 17.2344 67.869 17.2344C66.4948 17.2344 65.4802 14.3113 65.4802 9.40381C65.4802 4.46949 66.505 1.57326 67.869 1.57326C69.2398 1.57326 70.2578 4.47843 70.2578 9.40381Z" fill="white"/>
<path d="M71.6999 1.75204H73.902V18.5573H74.5366V1.75204H76.7387V0.250292H71.6999V1.75204Z" fill="white"/>
<path d="M78.1672 0.250292V18.5573H78.7848L82.8905 3.22697H82.9448V18.5573H83.5793V0.250292H82.9651L78.8459 15.5985H78.7916V0.250292H78.1672Z" fill="white"/>
<path d="M85.4269 18.5573H87.9005C89.3935 18.5573 90.0823 16.5282 90.0823 13.7571C90.0823 10.9771 89.3833 9.30548 88.7081 9.18033V9.03731C89.329 8.5993 89.8108 7.32997 89.8108 5.04159C89.8108 2.28838 89.1288 0.250292 87.7715 0.250292H85.4269V18.5573ZM86.0614 17.0556V10.0027H87.9276C88.8607 10.0027 89.4749 11.6654 89.4749 13.7571C89.4749 15.6522 88.9727 17.0556 87.9005 17.0556H86.0614ZM86.0614 8.51885V1.75204H87.7715C88.7216 1.75204 89.2035 3.10183 89.2035 5.04159C89.2035 7.05286 88.6504 8.51885 87.8292 8.51885H86.0614Z" fill="white"/>
<path d="M97.3106 9.40381C97.3106 3.67392 96.0619 0 94.3042 0C92.55 0 91.3013 3.68286 91.3013 9.40381C91.3013 15.1248 92.5466 18.8076 94.3042 18.8076C96.0619 18.8076 97.3106 15.1337 97.3106 9.40381ZM96.693 9.40381C96.6964 14.3292 95.6751 17.2344 94.3042 17.2344C92.93 17.2344 91.9154 14.3113 91.9154 9.40381C91.9154 4.46949 92.9402 1.57326 94.3042 1.57326C95.6751 1.57326 96.693 4.47843 96.693 9.40381Z" fill="white"/>
<path d="M103.802 0.250292H98.7942V18.5573H99.4287V1.75204H103.171V18.5573H103.802V0.250292Z" fill="white"/>
<path d="M111.298 9.40381C111.298 3.67392 110.049 0 108.292 0C106.537 0 105.289 3.68286 105.289 9.40381C105.289 15.1248 106.534 18.8076 108.292 18.8076C110.049 18.8076 111.298 15.1337 111.298 9.40381ZM110.68 9.40381C110.684 14.3292 109.662 17.2344 108.292 17.2344C106.917 17.2344 105.903 14.3113 105.903 9.40381C105.903 4.46949 106.928 1.57326 108.292 1.57326C109.662 1.57326 110.68 4.47843 110.68 9.40381Z" fill="white"/>
<path d="M116.86 18.5573H117.62L114.834 8.50097L117.41 0.250292H116.657L114.095 8.42946H113.467V0.250292H112.833V18.5573H113.467V9.92227H114.468L116.86 18.5573Z" fill="white"/>
<path d="M118.824 18.5573L119.567 13.042H122.485L123.228 18.5573H123.893L121.365 0.250292H120.687L118.159 18.5573H118.824ZM119.771 11.5402L121.002 2.42246H121.05L122.282 11.5402H119.771Z" fill="white"/>
<path d="M127.192 18.8076C128.494 18.8076 129.445 16.5908 129.445 13.6588C129.445 11.3346 128.902 9.62728 128.016 9.16246V9.04625C128.746 8.47416 129.207 6.91877 129.207 4.82705C129.207 2.20793 128.427 0 127.205 0C126.041 0 125.112 1.96658 125.084 4.82705H125.699C125.719 2.78002 126.391 1.47493 127.198 1.47493C128.036 1.47493 128.589 2.87835 128.589 4.89856C128.589 7.03498 127.941 8.40264 127.042 8.40264H126.635V9.90439H127.042C128.142 9.90439 128.82 11.433 128.82 13.6588C128.82 15.7684 128.145 17.3059 127.185 17.3059C126.299 17.3059 125.607 15.9829 125.573 13.9806H124.932C124.966 16.8321 125.902 18.8076 127.192 18.8076Z" fill="white"/>
<path d="M131.104 18.5573L131.847 13.042H134.765L135.508 18.5573H136.173L133.645 0.250292H132.967L130.439 18.5573H131.104ZM132.051 11.5402L133.282 2.42246H133.33L134.561 11.5402H132.051Z" fill="white"/>
<path d="M137.364 18.5573H137.999V10.1457H141.942V18.5573H142.576V0.250292H141.942V8.644H137.999V0.250292H137.364V18.5573Z" fill="white"/>
<path d="M144.419 0.250292V18.5573H145.036L149.142 3.22697H149.196V18.5573H149.831V0.250292H149.216L145.097 15.5985H145.043V0.250292H144.419Z" fill="white"/>
<path d="M155.862 18.5573V0.250292H153.619C152.143 0.250292 151.38 2.52973 151.38 5.72989C151.38 8.17917 151.827 10.0564 152.693 10.8072L151.088 18.5573H151.821L153.344 11.129C153.429 11.1469 153.517 11.1558 153.609 11.1558H155.227V18.5573H155.862ZM155.227 9.62728H153.626C152.537 9.62728 152.004 8.12554 152.004 5.72989C152.004 3.33424 152.537 1.75204 153.636 1.75204H155.227V9.62728Z" fill="white"/>
<path d="M158.062 18.6914C158.334 18.6914 158.551 18.1104 158.551 17.4042C158.551 16.6891 158.334 16.117 158.062 16.117C157.794 16.117 157.574 16.6891 157.574 17.4042C157.574 18.1104 157.794 18.6914 158.062 18.6914Z" fill="white"/>
<path d="M162.96 18.5573H163.594V10.1457H167.537V18.5573H168.171V0.250292H167.537V8.644H163.594V0.250292H162.96V18.5573Z" fill="white"/>
<path d="M170.014 18.5573H174.113V17.0556H170.648V10.1457H173.831V8.644H170.648V1.75204H174.045V0.250292H170.014V18.5573Z" fill="white"/>
<path d="M181.384 9.40381C181.384 3.67392 180.136 0 178.378 0C176.624 0 175.375 3.68286 175.375 9.40381C175.375 15.1248 176.62 18.8076 178.378 18.8076C180.136 18.8076 181.384 15.1337 181.384 9.40381ZM180.767 9.40381C180.77 14.3292 179.749 17.2344 178.378 17.2344C177.004 17.2344 175.989 14.3113 175.989 9.40381C175.989 4.46949 177.014 1.57326 178.378 1.57326C179.749 1.57326 180.767 4.47843 180.767 9.40381Z" fill="white"/>
<path d="M182.919 18.5573H185.525C186.919 18.5573 187.71 16.4388 187.71 13.3012C187.71 10.253 186.913 8.29537 185.525 8.29537H183.553V1.75204H186.974V0.250292H182.919V18.5573ZM183.553 17.0824V9.79712H185.525C186.506 9.79712 187.086 11.2989 187.086 13.2654C187.086 15.384 186.519 17.0824 185.525 17.0824H183.553Z" fill="white"/>
<path d="M189.345 0.250292H188.595L190.865 9.40381L188.595 18.5573H189.345L191.269 10.7H191.313L193.237 18.5573H193.987L191.75 9.40381L193.987 0.250292H193.237L191.313 8.19705H191.269L189.345 0.250292Z" fill="white"/>
<path d="M200.812 9.40381C200.812 3.67392 199.563 0 197.806 0C196.051 0 194.803 3.68286 194.803 9.40381C194.803 15.1248 196.048 18.8076 197.806 18.8076C199.563 18.8076 200.812 15.1337 200.812 9.40381ZM200.194 9.40381C200.198 14.3292 199.176 17.2344 197.806 17.2344C196.431 17.2344 195.417 14.3113 195.417 9.40381C195.417 4.46949 196.442 1.57326 197.806 1.57326C199.176 1.57326 200.194 4.47843 200.194 9.40381Z" fill="white"/>
<path d="M201.692 23H202.296V18.5573H207.419V22.9553H208.023V17.0556H207.209V0.250292H203.235L203.096 8.19705C203.012 13.3638 202.615 15.7326 202.133 17.0556H201.692V23ZM202.893 17.0556C203.361 15.1605 203.629 12.3894 203.704 8.19705L203.812 1.75204H206.605V17.0556H202.893Z" fill="white"/>
<path d="M209.391 0.250292V18.5573H210.009L214.115 3.22697H214.169V18.5573H214.804V0.250292H214.189L210.07 15.5985H210.016V0.250292H209.391Z" fill="white"/>
<path d="M216.651 0.250292V18.5573H217.248V3.78119H217.303L219.647 18.5573H220.224L222.569 3.78119H222.623V18.5573H223.22V0.250292H222.487L219.966 16.1974H219.905L217.384 0.250292H216.651Z" fill="white"/>
<path d="M230.765 9.40381C230.765 3.67392 229.516 0 227.759 0C226.004 0 224.756 3.68286 224.756 9.40381C224.756 15.1248 226.001 18.8076 227.759 18.8076C229.516 18.8076 230.765 15.1337 230.765 9.40381ZM230.147 9.40381C230.151 14.3292 229.129 17.2344 227.759 17.2344C226.384 17.2344 225.37 14.3113 225.37 9.40381C225.37 4.46949 226.395 1.57326 227.759 1.57326C229.129 1.57326 230.147 4.47843 230.147 9.40381Z" fill="white"/>
<path d="M239.944 0.250292H234.936V18.5573H235.571V1.75204H239.313V18.5573H239.944V0.250292Z" fill="white"/>
<path d="M241.743 18.5573H242.377V11.5581H243.996C245.465 11.5581 246.225 9.09988 246.225 5.89973C246.225 2.69957 245.465 0.250292 243.986 0.250292H241.743V18.5573ZM242.377 10.0564V1.75204H243.969C245.068 1.75204 245.601 3.49514 245.601 5.89973C245.601 8.29538 245.068 10.0564 243.979 10.0564H242.377Z" fill="white"/>
<path d="M253.412 9.40381C253.412 3.67392 252.163 0 250.405 0C248.651 0 247.402 3.68286 247.402 9.40381C247.402 15.1248 248.648 18.8076 250.405 18.8076C252.163 18.8076 253.412 15.1337 253.412 9.40381ZM252.794 9.40381C252.798 14.3292 251.776 17.2344 250.405 17.2344C249.031 17.2344 248.017 14.3113 248.017 9.40381C248.017 4.46949 249.041 1.57326 250.405 1.57326C251.776 1.57326 252.794 4.47843 252.794 9.40381Z" fill="white"/>
<path d="M258.974 18.5573H259.734L256.948 8.50097L259.524 0.250292H258.77L256.209 8.42946H255.581V0.250292H254.946V18.5573H255.581V9.92227H256.582L258.974 18.5573Z" fill="white"/>
<path d="M266.279 9.40381C266.279 3.67392 265.031 0 263.273 0C261.519 0 260.27 3.68286 260.27 9.40381C260.27 15.1248 261.515 18.8076 263.273 18.8076C265.031 18.8076 266.279 15.1337 266.279 9.40381ZM265.662 9.40381C265.665 14.3292 264.644 17.2344 263.273 17.2344C261.899 17.2344 260.884 14.3113 260.884 9.40381C260.884 4.46949 261.909 1.57326 263.273 1.57326C264.644 1.57326 265.662 4.47843 265.662 9.40381Z" fill="white"/>
<path d="M267.814 18.5573H268.448V10.1457H272.391V18.5573H273.026V0.250292H272.391V8.644H268.448V0.250292H267.814V18.5573Z" fill="white"/>
<path d="M280.311 5.97124C280.084 2.60124 279.039 0 277.559 0C275.805 0 274.556 3.67392 274.556 9.40381C274.556 15.1337 275.805 18.8076 277.559 18.8076C279.039 18.8076 280.084 16.1974 280.311 12.8364H279.673C279.48 15.3482 278.648 17.2344 277.559 17.2344C276.243 17.2344 275.17 14.4901 275.17 9.40381C275.17 4.33541 276.243 1.57326 277.559 1.57326C278.648 1.57326 279.48 3.46833 279.673 5.97124H280.311Z" fill="white"/>
<path d="M282.042 18.8076H282.405C283.386 18.8076 283.715 17.583 284.007 15.7684L286.406 0.250292H285.734L283.861 12.5146L281.832 0.250292H281.15L283.542 14.5348L283.427 15.2678C283.237 16.4656 282.972 17.2433 282.388 17.2433H282.042V18.8076Z" fill="white"/>
<path d="M286.941 18.5573H287.135C288.512 18.5573 288.865 15.5985 288.947 9.79712L289.059 1.75204H291.899V18.5573H292.533V0.250292H288.455L288.332 9.43063C288.258 14.8923 287.986 17.0109 287.124 17.0109H286.941V18.5573Z" fill="white"/>
<path d="M295.014 8.29537V0.250292H294.38V18.5573H296.986C298.38 18.5573 299.171 16.4477 299.171 13.3012C299.171 10.253 298.374 8.29537 296.986 8.29537H295.014ZM295.014 9.79712H296.986C297.966 9.79712 298.547 11.2989 298.547 13.2654C298.547 15.3929 297.98 17.0824 296.986 17.0824H295.014V9.79712Z" fill="white"/>
<path d="M299.819 1.75204H302.021V18.5573H302.656V1.75204H304.858V0.250292H299.819V1.75204Z" fill="white"/>
<path d="M306.286 0.250292V18.5573H306.904L311.01 3.22697H311.064V18.5573H311.698V0.250292H311.084L306.965 15.5985H306.911V0.250292H306.286Z" fill="white"/>
<path d="M313.546 18.5573H314.181V11.5581H315.799C317.268 11.5581 318.028 9.09988 318.028 5.89973C318.028 2.69957 317.268 0.250292 315.789 0.250292H313.546V18.5573ZM314.181 10.0564V1.75204H315.772C316.871 1.75204 317.404 3.49514 317.404 5.89973C317.404 8.29538 316.871 10.0564 315.782 10.0564H314.181Z" fill="white"/>
<path d="M325.215 9.40381C325.215 3.67392 323.966 0 322.209 0C320.454 0 319.206 3.68286 319.206 9.40381C319.206 15.1248 320.451 18.8076 322.209 18.8076C323.966 18.8076 325.215 15.1337 325.215 9.40381ZM324.598 9.40381C324.601 14.3292 323.58 17.2344 322.209 17.2344C320.835 17.2344 319.82 14.3113 319.82 9.40381C319.82 4.46949 320.845 1.57326 322.209 1.57326C323.58 1.57326 324.598 4.47843 324.598 9.40381Z" fill="white"/>
<path d="M326.75 18.5573H329.223C330.716 18.5573 331.405 16.5282 331.405 13.7571C331.405 10.9771 330.706 9.30548 330.031 9.18033V9.03731C330.652 8.5993 331.134 7.32997 331.134 5.04159C331.134 2.28838 330.452 0.250292 329.094 0.250292H326.75V18.5573ZM327.384 17.0556V10.0027H329.25C330.184 10.0027 330.798 11.6654 330.798 13.7571C330.798 15.6522 330.296 17.0556 329.223 17.0556H327.384ZM327.384 8.51885V1.75204H329.094C330.044 1.75204 330.526 3.10183 330.526 5.04159C330.526 7.05286 329.973 8.51885 329.152 8.51885H327.384Z" fill="white"/>
<path d="M332.946 18.5573L333.689 13.042H336.608L337.351 18.5573H338.016L335.488 0.250292H334.809L332.281 18.5573H332.946ZM333.893 11.5402L335.125 2.42246H335.172L336.404 11.5402H333.893Z" fill="white"/>
<path d="M337.974 1.75204H340.176V18.5573H340.811V1.75204H343.013V0.250292H337.974V1.75204Z" fill="white"/>
<path d="M345.076 8.29537V0.250292H344.442V18.5573H347.047C348.442 18.5573 349.233 16.4477 349.233 13.3012C349.233 10.253 348.435 8.29537 347.047 8.29537H345.076ZM345.076 9.79712H347.047C348.028 9.79712 348.608 11.2989 348.608 13.2654C348.608 15.3929 348.042 17.0824 347.047 17.0824H345.076V9.79712Z" fill="white"/>
<path d="M356.127 5.97124C355.899 2.60124 354.854 0 353.375 0C351.621 0 350.372 3.67392 350.372 9.40381C350.372 15.1337 351.621 18.8076 353.375 18.8076C354.854 18.8076 355.899 16.1974 356.127 12.8364H355.489C355.295 15.3482 354.464 17.2344 353.375 17.2344C352.058 17.2344 350.986 14.4901 350.986 9.40381C350.986 4.33541 352.058 1.57326 353.375 1.57326C354.464 1.57326 355.295 3.46833 355.489 5.97124H356.127Z" fill="white"/>
<path d="M361.801 18.5573V0.250292H359.558C358.082 0.250292 357.319 2.52973 357.319 5.72989C357.319 8.17917 357.766 10.0564 358.632 10.8072L357.027 18.5573H357.76L359.283 11.129C359.368 11.1469 359.456 11.1558 359.548 11.1558H361.166V18.5573H361.801ZM361.166 9.62728H359.565C358.476 9.62728 357.943 8.12554 357.943 5.72989C357.943 3.33424 358.476 1.75204 359.575 1.75204H361.166V9.62728Z" fill="white"/>
<path d="M371.775 5.97124C371.548 2.60124 370.503 0 369.023 0C367.269 0 366.02 3.67392 366.02 9.40381C366.02 15.1337 367.269 18.8076 369.023 18.8076C370.503 18.8076 371.548 16.1974 371.775 12.8364H371.137C370.944 15.3482 370.112 17.2344 369.023 17.2344C367.707 17.2344 366.634 14.4901 366.634 9.40381C366.634 4.33541 367.707 1.57326 369.023 1.57326C370.112 1.57326 370.944 3.46833 371.137 5.97124H371.775Z" fill="white"/>
<path d="M375.953 0.250292V18.5573H376.55V3.78119H376.604L378.949 18.5573H379.526L381.871 3.78119H381.925V18.5573H382.522V0.250292H381.789L379.268 16.1974H379.207L376.686 0.250292H375.953Z" fill="white"/>
<path d="M384.37 18.5573H388.469V17.0556H385.004V10.1457H388.187V8.644H385.004V1.75204H388.401V0.250292H384.37V18.5573Z" fill="white"/>
<path d="M389.388 23H389.992V18.5573H395.116V22.9553H395.72V17.0556H394.905V0.250292H390.932L390.793 8.19705C390.708 13.3638 390.311 15.7326 389.829 17.0556H389.388V23ZM390.589 17.0556C391.058 15.1605 391.326 12.3894 391.4 8.19705L391.509 1.75204H394.301V17.0556H390.589Z" fill="white"/>
<path d="M397.088 0.250292V18.5573H397.706L401.811 3.22697H401.866V18.5573H402.5V0.250292H401.886L397.767 15.5985H397.712V0.250292H397.088Z" fill="white"/>
<path d="M409.95 16.9572H409.346V0.250292H408.742V16.9572H408.708V17.0109H404.955V0.250292H404.348V18.5573H409.234V22.8838H409.858L409.95 16.9572Z" fill="white"/>
<path d="M411.318 0.250292V18.5573H411.936L416.041 3.22697H416.096V18.5573H416.73V0.250292H416.116L411.997 15.5985H411.942V0.250292H411.318Z" fill="white"/>
<path d="M418.578 18.5573H419.212V10.1457H423.155V18.5573H423.79V0.250292H423.155V8.644H419.212V0.250292H418.578V18.5573Z" fill="white"/>
<path d="M431.075 5.97124C430.847 2.60124 429.802 0 428.323 0C426.569 0 425.32 3.67392 425.32 9.40381C425.32 15.1337 426.569 18.8076 428.323 18.8076C429.802 18.8076 430.847 16.1974 431.075 12.8364H430.437C430.243 15.3482 429.412 17.2344 428.323 17.2344C427.006 17.2344 425.934 14.4901 425.934 9.40381C425.934 4.33541 427.006 1.57326 428.323 1.57326C429.412 1.57326 430.243 3.46833 430.437 5.97124H431.075Z" fill="white"/>
<path d="M436.593 18.5573H437.353L434.567 8.50097L437.143 0.250292H436.389L433.827 8.42946H433.2V0.250292H432.565V18.5573H433.2V9.92227H434.201L436.593 18.5573Z" fill="white"/>
<path d="M438.546 0.250292V18.5573H439.164L443.27 3.22697H443.324V18.5573H443.958V0.250292H443.344L439.225 15.5985H439.171V0.250292H438.546Z" fill="white"/>
<path d="M445.806 0.250292V18.5573H446.403V3.78119H446.458L448.802 18.5573H449.379L451.724 3.78119H451.778V18.5573H452.375V0.250292H451.642L449.121 16.1974H449.06L446.539 0.250292H445.806Z" fill="white"/>
<path d="M462.353 5.97124C462.125 2.60124 461.08 0 459.601 0C457.847 0 456.598 3.67392 456.598 9.40381C456.598 15.1337 457.847 18.8076 459.601 18.8076C461.08 18.8076 462.125 16.1974 462.353 12.8364H461.715C461.521 15.3482 460.69 17.2344 459.601 17.2344C458.284 17.2344 457.212 14.4901 457.212 9.40381C457.212 4.33541 458.284 1.57326 459.601 1.57326C460.69 1.57326 461.521 3.46833 461.715 5.97124H462.353Z" fill="white"/>
<path d="M468.801 0.250292H463.792V18.5573H464.427V1.75204H468.169V18.5573H468.801V0.250292Z" fill="white"/>
<path d="M470.599 18.5573H474.698V17.0556H471.234V10.1457H474.416V8.644H471.234V1.75204H474.63V0.250292H470.599V18.5573Z" fill="white"/>
<path d="M481.874 16.9572H481.27V0.250292H480.667V16.9572H480.633V17.0109H476.88V0.250292H476.272V18.5573H481.158V22.8838H481.783L481.874 16.9572Z" fill="white"/>
<path d="M483.243 0.250292V18.5573H483.86L487.966 3.22697H488.02V18.5573H488.655V0.250292H488.041L483.921 15.5985H483.867V0.250292H483.243Z" fill="white"/>
<path d="M490.513 18.5573L491.256 13.042H494.174L494.917 18.5573H495.582L493.054 0.250292H492.375L489.848 18.5573H490.513ZM491.459 11.5402L492.691 2.42246H492.738L493.97 11.5402H491.459Z" fill="white"/>
<path d="M496.118 18.5573H496.311C497.689 18.5573 498.042 15.5985 498.123 9.79712L498.235 1.75204H501.075V18.5573H501.71V0.250292H497.631L497.509 9.43063C497.435 14.8923 497.163 17.0109 496.301 17.0109H496.118V18.5573Z" fill="white"/>
<path d="M503.557 0.250292V18.5573H504.174L508.28 3.22697H508.334V18.5573H508.969V0.250292H508.355L504.235 15.5985H504.181V0.250292H503.557Z" fill="white"/>
<path d="M516.259 5.97124C516.032 2.60124 514.987 0 513.507 0C511.753 0 510.504 3.67392 510.504 9.40381C510.504 15.1337 511.753 18.8076 513.507 18.8076C514.987 18.8076 516.032 16.1974 516.259 12.8364H515.621C515.428 15.3482 514.596 17.2344 513.507 17.2344C512.191 17.2344 511.118 14.4901 511.118 9.40381C511.118 4.33541 512.191 1.57326 513.507 1.57326C514.596 1.57326 515.428 3.46833 515.621 5.97124H516.259Z" fill="white"/>
<path d="M517.329 1.75204H519.531V18.5573H520.165V1.75204H522.367V0.250292H517.329V1.75204Z" fill="white"/>
<path d="M529.204 9.40381C529.204 3.67392 527.955 0 526.198 0C524.443 0 523.195 3.68286 523.195 9.40381C523.195 15.1248 524.44 18.8076 526.198 18.8076C527.955 18.8076 529.204 15.1337 529.204 9.40381ZM528.586 9.40381C528.59 14.3292 527.568 17.2344 526.198 17.2344C524.823 17.2344 523.809 14.3113 523.809 9.40381C523.809 4.46949 524.833 1.57326 526.198 1.57326C527.568 1.57326 528.586 4.47843 528.586 9.40381Z" fill="white"/>
<path d="M530.738 0.250292V18.5573H531.336V3.78119H531.39L533.734 18.5573H534.311L536.656 3.78119H536.71V18.5573H537.308V0.250292H536.575L534.053 16.1974H533.992L531.471 0.250292H530.738Z" fill="white"/>
<path d="M539.511 18.6914C539.783 18.6914 540 18.1104 540 17.4042C540 16.6891 539.783 16.117 539.511 16.117C539.243 16.117 539.023 16.6891 539.023 17.4042C539.023 18.1104 539.243 18.6914 539.511 18.6914Z" fill="white"/>
</g>
</svg>
