<?xml version="1.0" encoding="utf-8"?>
<svg xmlns="http://www.w3.org/2000/svg" xmlns:xlink="http://www.w3.org/1999/xlink" viewBox="0 0 26 26">
    <defs>
        <style>.cls-1{fill:url(#gr1);}.cls-2{fill:#fff;}</style>
        <linearGradient id="gr1" y1="15" x2="26" y2="15" gradientTransform="matrix(1, 0, 0, -1, 0, 28)" gradientUnits="userSpaceOnUse">
            <stop offset="0" stop-color="#6c207f"/>
            <stop offset="1" stop-color="#a02b91"/>
        </linearGradient>
    </defs>
    <circle class="cls-1" cx="13" cy="13" r="13"/>
    <path class="cls-2" d="M17.85,15a18,18,0,0,1,1.31,1.31,3.53,3.53,0,0,1,.46.68c.18.35,0,.73-.29.75H17.39a1.49,1.49,0,0,1-1.23-.5c-.27-.28-.52-.57-.77-.85a1.69,1.69,0,0,0-.35-.31.41.41,0,0,0-.65.15,2,2,0,0,0-.2.91c0,.46-.16.58-.62.6a4.88,4.88,0,0,1-2.77-.6,6.1,6.1,0,0,1-1.86-1.75A23.1,23.1,0,0,1,6.49,11c-.16-.34,0-.53.34-.53.63,0,1.26,0,1.89,0a.58.58,0,0,1,.53.4,11.94,11.94,0,0,0,1.28,2.39,1.94,1.94,0,0,0,.49.54c.22.15.39.1.5-.15a2.13,2.13,0,0,0,.11-.5,8,8,0,0,0,0-1.76.74.74,0,0,0-.62-.67c-.19,0-.16-.1-.07-.21a.69.69,0,0,1,.59-.3h2.19c.34.07.42.23.47.57v2.45c0,.13.07.53.31.62s.32-.09.43-.22a7.33,7.33,0,0,0,1.24-1.9c.14-.3.27-.61.4-.92a.46.46,0,0,1,.49-.34h2.29c.36.06.45.21.34.56a5.16,5.16,0,0,1-.83,1.46c-.35.49-.73,1-1.08,1.45S17.46,14.64,17.85,15Z"/>
</svg>