<svg width="18" height="24" viewBox="0 0 18 24" fill="none" xmlns="http://www.w3.org/2000/svg">
<path d="M8.63701 18.0696C8.33913 18.0696 8.14674 18.0951 8.03282 18.1204V21.8554C8.14697 21.881 8.33084 21.881 8.49697 21.881C9.70498 21.8892 10.4931 21.2459 10.4931 19.8821C10.5017 18.6962 9.7839 18.0696 8.63701 18.0696Z" fill="#C97CC1"/>
<path d="M3.47914 18.0528C3.20788 18.0528 3.024 18.0781 2.92743 18.1034V19.789C3.04144 19.8143 3.18161 19.823 3.37351 19.823C4.08328 19.823 4.52085 19.4756 4.52085 18.8913C4.52089 18.3663 4.14418 18.0528 3.47914 18.0528Z" fill="#C97CC1"/>
<path d="M17.9952 5.75127C17.9938 5.64121 17.9577 5.5325 17.8795 5.44657L13.0956 0.160958L13.0919 0.157647C13.0633 0.126841 13.0306 0.101438 12.9954 0.0790412C12.985 0.0725053 12.974 0.066623 12.9631 0.0606535C12.9327 0.0447058 12.9008 0.0314596 12.8671 0.0217865C12.8586 0.0192592 12.85 0.0156862 12.841 0.0134205C12.8049 0.00496731 12.7674 0 12.7298 0H0.97297C0.436575 0 0 0.422352 0 0.941218V23.0588C0 23.5779 0.436575 24 0.97297 24H17.027C17.5634 24 18 23.5779 18 23.0588V5.804C18 5.78631 17.9971 5.76897 17.9952 5.75127ZM5.30003 20.2123C4.8449 20.6272 4.17067 20.8139 3.38251 20.8139C3.20765 20.8139 3.04959 20.8051 2.92747 20.7886V22.8295H1.6054V17.1971C2.01671 17.1296 2.5949 17.0786 3.40932 17.0786C4.23215 17.0786 4.81886 17.2311 5.21273 17.5358C5.58945 17.8239 5.84269 18.2982 5.84269 18.857C5.84269 19.4163 5.65053 19.8906 5.30003 20.2123ZM10.9302 22.1521C10.3093 22.6516 9.36367 22.8888 8.20827 22.8888C7.51642 22.8888 7.02638 22.8465 6.69309 22.8042V17.1971C7.1835 17.1213 7.82295 17.0786 8.49696 17.0786C9.61709 17.0786 10.344 17.2734 10.9134 17.6884C11.5265 18.1289 11.9118 18.8318 11.9118 19.8396C11.9113 20.9324 11.4998 21.6861 10.9302 22.1521ZM16.3951 18.1797H14.127V19.4839H16.2459V20.5345H14.127V22.8295H12.7878V17.1213H16.3951V18.1797ZM0.97297 15.9804V0.941218H12.2433V5.75668C12.2433 6.01642 12.461 6.22726 12.7298 6.22726H17.027L17.0275 15.9804H0.97297Z" fill="#C97CC1"/>
<path d="M13.9912 10.1148C13.9627 10.1122 13.2771 10.0517 12.2248 10.0517C11.8951 10.0517 11.5631 10.0579 11.2352 10.0699C9.15718 8.56136 7.45512 7.05169 6.5439 6.20564C6.56052 6.11248 6.57196 6.03884 6.57728 5.98228C6.69746 4.75505 6.56386 3.92655 6.18152 3.51976C5.93116 3.25392 5.56345 3.16547 5.18003 3.26677C4.94192 3.32712 4.50116 3.55056 4.36003 4.00542C4.20422 4.50808 4.45467 5.11814 5.11264 5.82559C5.12309 5.83631 5.34638 6.06263 5.7521 6.44611C5.48841 7.66236 4.79814 10.287 4.46323 11.5473C3.67661 11.9539 3.02121 12.4437 2.51382 13.0055L2.48058 13.0423L2.45909 13.0864C2.40684 13.1926 2.15707 13.7438 2.34459 14.1866C2.43022 14.3879 2.59067 14.5349 2.80864 14.6122L2.86706 14.6274C2.86706 14.6274 2.91977 14.6384 3.01242 14.6384C3.41828 14.6384 4.42008 14.4321 4.95742 12.5166L5.0876 12.0313C6.96323 11.1494 9.30777 10.8649 11.0072 10.7857C11.8813 11.4127 12.7512 11.9888 13.594 12.4989L13.6215 12.5143C13.6624 12.5345 14.032 12.711 14.4648 12.7114C15.0834 12.7114 15.5352 12.3442 15.7034 11.7043L15.7119 11.6606C15.7589 11.2949 15.6639 10.9652 15.4373 10.7075C14.9599 10.1647 14.071 10.1174 13.9912 10.1148ZM3.02756 13.9322C3.02378 13.9278 3.02197 13.9237 3.02008 13.9191C2.97972 13.8251 3.02815 13.5971 3.09941 13.4301C3.40535 13.0992 3.7726 12.7955 4.19639 12.522C3.78368 13.8143 3.18351 13.926 3.02756 13.9322ZM5.64791 5.34616C5.01413 4.66372 5.02364 4.32538 5.05773 4.21148C5.11368 4.02111 5.3662 3.94917 5.36836 3.94852C5.49557 3.91505 5.57278 3.92163 5.64152 3.99462C5.79697 4.1598 5.93048 4.65832 5.87773 5.57274C5.72809 5.42729 5.64791 5.34616 5.64791 5.34616ZM5.32044 11.1576L5.33138 11.1172L5.32994 11.1177C5.64728 9.91535 6.10494 8.15487 6.36809 7.02402L6.3776 7.03278L6.37854 7.02738C7.22989 7.80289 8.53529 8.93722 10.0983 10.117L10.0807 10.1177L10.1066 10.1366C8.63417 10.2569 6.87552 10.5377 5.32044 11.1576ZM14.9903 11.552C14.8782 11.9505 14.6625 12.005 14.4649 12.005C14.2354 12.005 14.0145 11.9126 13.9642 11.8903C13.3902 11.5424 12.8031 11.1632 12.2106 10.7575C12.2153 10.7575 12.2196 10.7575 12.2248 10.7575C13.2406 10.7575 13.9171 10.8172 13.9437 10.819C14.1133 10.8251 14.6501 10.9018 14.8815 11.1649C14.9722 11.268 15.0069 11.3913 14.9903 11.552Z" fill="#C97CC1"/>
</svg>
